<svg width="224.1" height="150.6" xmlns="http://www.w3.org/2000/svg" xmlns:xlink="http://www.w3.org/1999/xlink">
 <g>
  <title>Layer 1</title>
  <g id="svg_1">
   <path id="svg_2" d="m155.399994,464.700012c-0.699997,0 -1.300003,0.200012 -1.800003,0.5c-0.5,0.299988 -0.899994,0.700012 -1.199997,1.299988c-0.300003,0.5 -0.5,1.200012 -0.600006,1.900024c-0.099991,0.699982 -0.199997,1.599976 -0.199997,2.399994c-2.5,0 -4.399994,-0.300018 -5.699997,-0.899994c-1.300003,-0.600006 -1.900009,-1.5 -1.900009,-2.900024c0,-1 0.300003,-1.899994 0.900009,-2.599976c0.599991,-0.700012 1.399994,-1.300018 2.5,-1.800018c1.099991,-0.5 2.300003,-0.799988 3.699997,-1c1.399994,-0.199982 2.899994,-0.299988 4.5,-0.299988c2,0 3.699997,0.199982 5.199997,0.5c1.5,0.299988 2.699997,0.899994 3.699997,1.600006c1,0.799988 1.700012,1.699982 2.200012,3c0.5,1.199982 0.699997,2.699982 0.699997,4.5v14.299988c0,0.799988 0.099991,1.399994 0.199997,1.899994c0.100006,0.5 0.300003,0.899994 0.600006,1.200012c0.299988,0.299988 0.599991,0.5 1,0.600006c0.399994,0.099976 1,0.199982 1.599991,0.199982h0.199997v3h-10.5l-1.199997,-3.899994h-0.5c-0.599991,0.799988 -1.199997,1.399994 -1.800003,2c-0.5,0.600006 -1.099991,1 -1.799988,1.399994c-0.600006,0.399994 -1.300003,0.600006 -2.100006,0.800018c-0.800003,0.199982 -1.699997,0.299988 -2.800003,0.299988c-1.199997,0 -2.399994,-0.200012 -3.5,-0.600006c-1.099991,-0.399994 -2,-0.899994 -2.800003,-1.699982c-0.799988,-0.800018 -1.399994,-1.700012 -1.899994,-2.900024c-0.5,-1.099976 -0.699997,-2.5 -0.699997,-4.099976c0,-3.100006 1,-5.300018 3.099991,-6.800018c2.100006,-1.5 5.300003,-2.299988 9.5,-2.399994l4.600006,-0.200012v-3.099976c0,-0.900024 0,-1.800018 -0.100006,-2.600006c-0.099991,-0.800018 -0.199997,-1.5 -0.5,-2c-0.199997,-0.600006 -0.599991,-1 -1.099991,-1.300018c-0.099991,-0.200012 -0.699997,-0.299988 -1.5,-0.299988zm-5,19c0,1.600006 0.300003,2.799988 0.800003,3.600006s1.299988,1.199982 2.399994,1.199982c0.800003,0 1.5,-0.199982 2.199997,-0.5c0.600006,-0.299988 1.199997,-0.799988 1.699997,-1.399994c0.5,-0.600006 0.800003,-1.399994 1.100006,-2.299988c0.199997,-0.899994 0.399994,-1.899994 0.399994,-3v-4.200012l-2.5,0.200012c-1.099991,0.100006 -2.099991,0.199982 -2.799988,0.5c-0.800003,0.299988 -1.400009,0.699982 -1.800003,1.199982c-0.5,0.5 -0.800003,1.200012 -1,1.900024c-0.399994,0.899963 -0.5,1.799988 -0.5,2.799988z" fill="#3E7D9B"/>
  </g>
  <g id="svg_3">
   <path id="svg_4" d="m183.800003,492.700012c-2.100006,0 -4,-0.299988 -5.699997,-0.799988c-1.700012,-0.5 -3.200012,-1.400024 -4.400009,-2.600006c-1.199997,-1.200012 -2.199997,-2.800018 -2.899994,-4.800018c-0.699997,-2 -1,-4.399994 -1,-7.299988c0,-3 0.399994,-5.600006 1.099991,-7.600006c0.700012,-2 1.700012,-3.699982 2.900009,-4.899994c1.199997,-1.200012 2.699997,-2.100006 4.399994,-2.600006c1.699997,-0.5 3.5,-0.799988 5.400009,-0.799988c1.799988,0 3.399994,0.100006 4.799988,0.5c1.400009,0.299988 2.600006,0.699982 3.5,1.199982c0.900009,0.5 1.600006,1.200012 2.100006,1.900024c0.5,0.699982 0.699997,1.5 0.699997,2.299988c0,0.600006 -0.099991,1.200012 -0.300003,1.799988c-0.199997,0.600006 -0.599991,1.100006 -1.099991,1.5c-0.5,0.400024 -1.300003,0.800018 -2.199997,1.100006c-0.900009,0.300018 -2.100006,0.399994 -3.600006,0.399994c0,-1 -0.100006,-1.899994 -0.199997,-2.799988s-0.300003,-1.600006 -0.600006,-2.299988s-0.599991,-1.200012 -1.099991,-1.600006c-0.5,-0.399994 -1.100006,-0.600006 -1.800003,-0.600006c-0.800003,0 -1.600006,0.200012 -2.199997,0.600006c-0.700012,0.399994 -1.200012,1.100006 -1.700012,2c-0.5,1 -0.799988,2.199982 -1.099991,3.799988c-0.199997,1.600006 -0.400009,3.600006 -0.400009,6c0,3.800018 0.5,6.700012 1.600006,8.5c1,1.899994 2.699997,2.800018 5.100006,2.800018c1,0 1.899994,-0.100006 2.699997,-0.300018s1.599991,-0.5 2.300003,-1c0.699997,-0.399994 1.299988,-0.899994 1.799988,-1.5s0.900009,-1.199982 1.300003,-1.799988c0.5,0.299988 0.800003,0.600006 1,1.100006c0.199997,0.5 0.300003,1 0.300003,1.5c0,0.699982 -0.199997,1.399994 -0.600006,2.199982c-0.399994,0.700012 -1.099991,1.399994 -2,2c-0.899994,0.600006 -2,1.100006 -3.399994,1.5c-1.100006,0.399994 -2.800003,0.600006 -4.699997,0.600006z" fill="#3E7D9B"/>
  </g>
  <g id="svg_5">
   <path id="svg_6" d="m209.800003,464.700012c-0.699997,0 -1.300003,0.200012 -1.800003,0.5c-0.5,0.299988 -0.899994,0.700012 -1.199997,1.299988c-0.300003,0.5 -0.5,1.200012 -0.600006,1.900024c-0.099991,0.699982 -0.199997,1.599976 -0.199997,2.399994c-2.5,0 -4.399994,-0.300018 -5.699997,-0.899994c-1.300003,-0.600006 -1.900009,-1.5 -1.900009,-2.900024c0,-1 0.300003,-1.899994 0.900009,-2.599976c0.599991,-0.700012 1.399994,-1.300018 2.5,-1.800018c1.099991,-0.5 2.300003,-0.799988 3.699997,-1c1.399994,-0.199982 2.899994,-0.299988 4.5,-0.299988c2,0 3.699997,0.199982 5.199997,0.5c1.5,0.299988 2.699997,0.899994 3.699997,1.600006c1,0.799988 1.700012,1.699982 2.200012,3c0.5,1.199982 0.699997,2.699982 0.699997,4.5v14.299988c0,0.799988 0.099991,1.399994 0.199997,1.899994c0.100006,0.5 0.300003,0.899994 0.600006,1.200012c0.299988,0.299988 0.599991,0.5 1,0.600006c0.399994,0.099976 1,0.199982 1.599991,0.199982h0.199997v3h-10.5l-1.199997,-3.899994h-0.5c-0.599991,0.799988 -1.199997,1.399994 -1.800003,2c-0.5,0.600006 -1.099991,1 -1.799988,1.399994c-0.600006,0.399994 -1.300003,0.600006 -2.100006,0.800018c-0.800003,0.199982 -1.699997,0.299988 -2.800003,0.299988c-1.199997,0 -2.399994,-0.200012 -3.5,-0.600006c-1.099991,-0.399994 -2,-0.899994 -2.800003,-1.699982c-0.799988,-0.800018 -1.399994,-1.700012 -1.899994,-2.900024c-0.5,-1.099976 -0.699997,-2.5 -0.699997,-4.099976c0,-3.100006 1,-5.300018 3.099991,-6.800018c2.100006,-1.5 5.300003,-2.299988 9.5,-2.399994l4.600006,-0.200012v-3.099976c0,-0.900024 0,-1.800018 -0.100006,-2.600006c-0.099991,-0.800018 -0.199997,-1.5 -0.5,-2c-0.199997,-0.600006 -0.599991,-1 -1.099991,-1.300018c-0.100006,-0.200012 -0.800003,-0.299988 -1.5,-0.299988zm-5,19c0,1.600006 0.300003,2.799988 0.800003,3.600006s1.299988,1.199982 2.399994,1.199982c0.800003,0 1.5,-0.199982 2.199997,-0.5c0.699997,-0.299988 1.199997,-0.799988 1.699997,-1.399994c0.5,-0.600006 0.800003,-1.399994 1.100006,-2.299988c0.199997,-0.899994 0.399994,-1.899994 0.399994,-3v-4.200012l-2.5,0.200012c-1.099991,0.100006 -2.099991,0.199982 -2.799988,0.5c-0.800003,0.299988 -1.400009,0.699982 -1.800003,1.199982c-0.5,0.5 -0.800003,1.200012 -1,1.900024c-0.400009,0.899963 -0.5,1.799988 -0.5,2.799988z" fill="#3E7D9B"/>
   <path id="svg_7" d="m252.600006,485.200012c0,0.899994 0.100006,1.5 0.400009,2.100006c0.299988,0.5 0.599991,0.899994 1,1.199982c0.399994,0.300018 0.899994,0.5 1.5,0.600006s1.099991,0.100006 1.800003,0.100006h0.199982v3h-10.899994l-1.599991,-4.399994h-0.5c-0.400009,0.799988 -0.900009,1.5 -1.400009,2.100006c-0.5,0.599976 -1.199997,1.099976 -1.899994,1.599976c-0.699997,0.400024 -1.5,0.800018 -2.400009,1c-0.899994,0.200012 -1.899994,0.300018 -3,0.300018c-1.799988,0 -3.5,-0.300018 -4.899994,-0.899994s-2.600006,-1.600006 -3.600006,-2.800018c-1,-1.299988 -1.699997,-2.899994 -2.199997,-4.799988c-0.5,-2 -0.800003,-4.300018 -0.800003,-7c0,-2.700012 0.300003,-5.100006 0.800003,-7s1.199997,-3.600006 2.199997,-4.899994c1,-1.300018 2.200012,-2.300018 3.600006,-2.900024c1.399994,-0.599976 3,-0.899994 4.800003,-0.899994c1.099991,0 2,0.100006 2.899994,0.300018c0.900009,0.199982 1.600006,0.5 2.300003,0.899994c0.699997,0.399994 1.300003,0.899994 1.800003,1.399994c0.5,0.5 1,1.200012 1.399994,1.799988h0.400009c-0.100006,-1 -0.100006,-2 -0.200012,-2.899994c0,-0.399994 0,-0.799988 -0.099991,-1.199982c0,-0.400024 -0.100006,-0.800018 -0.100006,-1.100006c0,-0.399994 0,-0.700012 -0.099991,-0.899994c0,-0.300018 0,-0.5 0,-0.700012v-3.100006c0,-0.799988 -0.100006,-1.399994 -0.400009,-1.899994c-0.199997,-0.5 -0.599991,-0.799988 -1,-1.100006c-0.399994,-0.199982 -0.899994,-0.399994 -1.399994,-0.5c-0.600006,-0.100006 -1.100006,-0.100006 -1.800003,-0.100006h-0.399994v-3h13.5l0.099991,35.700012l0,0zm-14.300003,3.299988c1.099991,0 2,-0.200012 2.800003,-0.700012c0.699997,-0.5 1.299988,-1.199982 1.799988,-2.099976c0.400009,-1 0.800003,-2.100006 0.900009,-3.600006c0.199997,-1.399994 0.300003,-3.100006 0.300003,-5.100006c0,-1.899994 -0.100006,-3.5 -0.300003,-4.899994c-0.199997,-1.399994 -0.5,-2.600006 -0.900009,-3.600006c-0.399994,-1 -1,-1.700012 -1.799988,-2.200012c-0.700012,-0.5 -1.700012,-0.799988 -2.800003,-0.799988c-0.900009,0 -1.699997,0.299988 -2.400009,0.799988c-0.699997,0.5 -1.199997,1.200012 -1.599991,2.200012c-0.400009,1 -0.699997,2.200012 -0.900009,3.600006c-0.199997,1.399994 -0.299988,3.100006 -0.299988,5c0,3.799988 0.399994,6.699982 1.199997,8.600006c0.800003,1.799988 2.099991,2.799988 4,2.799988z" fill="#3E7D9B"/>
  </g>
  <g id="svg_8">
   <path id="svg_9" d="m269.700012,492.700012c-2.399994,0 -4.5,-0.299988 -6.299988,-1c-1.800018,-0.700012 -3.300018,-1.700012 -4.600006,-3c-1.200012,-1.299988 -2.200012,-2.899994 -2.800018,-4.899994c-0.599991,-1.899994 -0.899994,-4.100006 -0.899994,-6.600006c0,-2.600006 0.300003,-5 0.899994,-6.899994c0.600006,-2 1.5,-3.700012 2.700012,-5c1.200012,-1.300018 2.700012,-2.300018 4.399994,-3c1.700012,-0.700012 3.700012,-1 5.899994,-1c2,0 3.900024,0.299988 5.5,0.899994c1.600006,0.600006 3,1.399994 4.100006,2.600006c1.100006,1.100006 2,2.5 2.600006,4.199982c0.600006,1.700012 0.899994,3.600006 0.899994,5.900024v2.899994h-18.399994c0.100006,1.899994 0.299988,3.5 0.600006,4.899994c0.399994,1.399994 0.899994,2.5 1.5,3.399994c0.600006,0.899994 1.399994,1.5 2.299988,1.899994c0.899994,0.400024 1.899994,0.600006 3.100006,0.600006c1,0 1.899994,-0.100006 2.700012,-0.299988s1.599976,-0.5 2.199982,-1c0.700012,-0.399994 1.300018,-0.899994 1.800018,-1.5c0.5,-0.600006 0.899994,-1.200012 1.199982,-1.800018c1,0.5 1.5,1.5 1.5,2.700012c0,0.799988 -0.199982,1.600006 -0.699982,2.299988s-1.100006,1.400024 -2,1.900024c-0.900024,0.5 -2.100006,1 -3.400024,1.299988c-1.299988,0.299988 -2.899994,0.5 -4.799988,0.5zm-0.5,-27.800018c-1.600006,0 -2.799988,0.799988 -3.799988,2.299988c-0.900024,1.600006 -1.400024,3.800018 -1.5,6.800018h9.699982c0,-1.400024 -0.100006,-2.700012 -0.199982,-3.800018c-0.200012,-1.100006 -0.400024,-2.100006 -0.800018,-2.899994c-0.399994,-0.799988 -0.799988,-1.399994 -1.399994,-1.799988c-0.5,-0.399994 -1.200012,-0.600006 -2,-0.600006z" fill="#3E7D9B"/>
  </g>
  <g id="svg_10">
   <path id="svg_11" d="m303.700012,492.100006v-18.5c0,-1.199982 -0.100006,-2.299988 -0.200012,-3.199982c-0.199982,-0.900024 -0.399994,-1.700012 -0.799988,-2.400024c-0.399994,-0.599976 -0.799988,-1.099976 -1.399994,-1.5c-0.600006,-0.299988 -1.300018,-0.5 -2.100006,-0.5c-0.899994,0 -1.700012,0.200012 -2.299988,0.700012c-0.600006,0.5 -1.100006,1.100006 -1.5,1.899994s-0.600006,1.700012 -0.800018,2.800018c-0.199982,1.099976 -0.199982,2.199982 -0.199982,3.299988v10.700012c0,0.799988 0.099976,1.399994 0.299988,1.899994c0.200012,0.5 0.5,0.799988 0.799988,1.100006c0.300018,0.299988 0.800018,0.399994 1.300018,0.5c0.5,0.099976 1.100006,0.099976 1.699982,0.099976h0.200012v3h-17.299988v-3h0.099976c0.600006,0 1.200012,0 1.800018,-0.099976c0.5,-0.100006 1,-0.300018 1.399994,-0.5c0.399994,-0.300018 0.700012,-0.700012 0.899994,-1.200012c0.200012,-0.5 0.300018,-1.200012 0.300018,-2v-16.799988c0,-0.800018 -0.100006,-1.400024 -0.300018,-1.900024c-0.199982,-0.5 -0.5,-0.799988 -0.799988,-1.099976c-0.399994,-0.300018 -0.800018,-0.400024 -1.300018,-0.5c-0.5,-0.100006 -1.099976,-0.100006 -1.699982,-0.100006h-0.200012v-2.800018h11.800018l0.699982,4h0.300018c0.599976,-1.100006 1.199982,-1.899994 1.799988,-2.5c0.600006,-0.600006 1.299988,-1.100006 2,-1.399994c0.700012,-0.300018 1.5,-0.5 2.299988,-0.600006c0.800018,-0.100006 1.600006,-0.100006 2.5,-0.100006c2.100006,0 3.800018,0.399994 5.300018,1.100006c1.5,0.700012 2.5,1.899994 3.199982,3.600006h0.5c0.600006,-1.100006 1.200012,-1.899994 1.900024,-2.5c0.699982,-0.600006 1.399994,-1.100006 2.099976,-1.399994c0.800018,-0.300018 1.600006,-0.5 2.400024,-0.600006c0.799988,-0.100006 1.699982,-0.100006 2.599976,-0.100006c1.400024,0 2.700012,0.200012 3.900024,0.600006c1.199982,0.399994 2.099976,1.100006 2.899994,2c0.799988,0.899994 1.399994,2 1.799988,3.399994c0.399994,1.399994 0.600006,3 0.600006,4.899994v13.100006c0,0.899994 0.100006,1.600006 0.200012,2.100006s0.399994,0.899994 0.699982,1.199982c0.300018,0.300018 0.700012,0.5 1.200012,0.600006c0.5,0.100006 1,0.100006 1.600006,0.100006h0.199982v3h-12.5v-18.5c0,-2.399994 -0.299988,-4.299988 -1,-5.600006c-0.699982,-1.299988 -1.799988,-2 -3.5,-2c-0.899994,0 -1.600006,0.200012 -2.299988,0.600006c-0.600006,0.399994 -1.100006,1 -1.5,1.700012c-0.399994,0.699982 -0.700012,1.599976 -0.899994,2.599976c-0.200012,1 -0.300018,2 -0.300018,3.100006v11.100006c0,0.899994 0.100006,1.600006 0.200012,2.100006s0.399994,0.899994 0.699982,1.199982c0.300018,0.300018 0.700012,0.5 1.200012,0.600006c0.5,0.100006 1,0.100006 1.700012,0.100006h0.199982v3l-12.399994,-0.399994l0,0l0,0z" fill="#3E7D9B"/>
  </g>
  <g id="svg_12">
   <path id="svg_13" d="m362.5,462v3c-0.600006,0 -1.100006,0.100006 -1.5,0.200012c-0.399994,0.099976 -0.799988,0.399994 -1.200012,0.699982c-0.299988,0.300018 -0.699982,0.700012 -1,1.300018s-0.599976,1.199982 -0.899994,2c-0.699982,1.899994 -1.299988,3.799988 -2.100006,5.699982c-0.699982,1.899994 -1.399994,3.899994 -2.199982,5.800018c-0.700012,2 -1.399994,3.899994 -2.200012,5.799988c-0.699982,1.899994 -1.399994,3.799988 -2.100006,5.700012c-0.699982,1.799988 -1.299988,3.399994 -1.899994,4.799988c-0.600006,1.399994 -1.199982,2.600006 -1.899994,3.600006c-0.600006,1 -1.399994,1.799988 -2.200012,2.5s-1.699982,1.199982 -2.699982,1.600006c-1,0.399994 -2.300018,0.699982 -3.600006,0.799988c-1.399994,0.200012 -3,0.200012 -4.799988,0.200012h-1v-3.300018c2,0 3.599976,-0.199982 5,-0.699982s2.5,-1.200012 3.5,-2c1,-0.900024 1.699982,-1.900024 2.299988,-3.200012c0.600006,-1.200012 1.100006,-2.600006 1.600006,-4.100006l-10.100006,-24.799988c-0.200012,-0.5 -0.5,-1 -0.700012,-1.300018c-0.299988,-0.299988 -0.599976,-0.599976 -0.899994,-0.699982c-0.299988,-0.200012 -0.600006,-0.300018 -1,-0.300018c-0.399994,0 -0.799988,-0.099976 -1.199982,-0.099976v-3.200012h16v3c-1.100006,0 -2,0.100006 -2.600006,0.399994s-0.899994,0.800018 -0.899994,1.700012c0,0.299988 0.099976,0.699982 0.199982,1.100006c0.100006,0.399994 0.200012,0.799988 0.399994,1.099976c0.300018,0.800018 0.700012,1.600006 1,2.600006c0.400024,0.899994 0.700012,1.899994 1,2.800018c0.300018,0.899994 0.700012,1.799988 1,2.699982c0.300018,0.899994 0.600006,1.600006 0.800018,2.300018c0.299988,0.699982 0.5,1.399994 0.699982,1.899994s0.300018,1.100006 0.5,1.600006c0.100006,0.5 0.200012,0.899994 0.300018,1.299988c0.100006,0.399994 0.100006,0.799988 0.199982,1.200012c0,-0.400024 0.100006,-0.800018 0.200012,-1.300018c0.100006,-0.5 0.200012,-0.899994 0.399994,-1.299988s0.300018,-0.800018 0.399994,-1.200012c0.100006,-0.299988 0.200012,-0.600006 0.300018,-0.699982l3.699982,-11c0.100006,-0.200012 0.100006,-0.400024 0.200012,-0.600006c0.100006,-0.200012 0.100006,-0.5 0.200012,-0.800018c0.099976,-0.299988 0.099976,-0.5 0.099976,-0.699982c0,-0.200012 0,-0.399994 0,-0.600006c0,-0.899994 -0.399994,-1.5 -1.099976,-1.799988c-0.700012,-0.300018 -1.700012,-0.5 -3,-0.5v-3h12.799988l0,-0.200012z" fill="#3E7D9B"/>
  </g>
  <g id="svg_14">
   <path id="svg_15" d="m273.700012,458.399994h-16.299988v-2.600006h0.099976c0.600006,0 1.100006,0 1.5,-0.100006c0.5,-0.100006 0.900024,-0.199982 1.200012,-0.5c0.299988,-0.199982 0.600006,-0.600006 0.799988,-1.100006c0.200012,-0.5 0.300018,-1.099976 0.300018,-1.799988v-14.100006c0,-0.699982 -0.100006,-1.299988 -0.200012,-1.699982c-0.199982,-0.400024 -0.399994,-0.800018 -0.699982,-1c-0.300018,-0.200012 -0.700012,-0.400024 -1.100006,-0.5c-0.399994,-0.100006 -0.899994,-0.100006 -1.5,-0.100006h-0.100006v-2.600006h9.899994l1,3.799988h0.200012c0.299988,-0.699982 0.699982,-1.399994 1,-1.899994c0.399994,-0.5 0.799988,-1 1.399994,-1.399994c0.5,-0.399994 1.200012,-0.600006 1.899994,-0.799988c0.700012,-0.200012 1.600006,-0.300018 2.600006,-0.300018c1.899994,0 3.299988,0.300018 4.200012,1c0.899994,0.700012 1.399994,1.700012 1.399994,2.899994c0,1.5 -0.5,2.700012 -1.600006,3.5c-1.100006,0.800018 -2.600006,1.200012 -4.600006,1.200012c0,-0.700012 0,-1.299988 -0.100006,-1.799988c-0.099976,-0.5 -0.199982,-0.900024 -0.399994,-1.300018c-0.199982,-0.299988 -0.399994,-0.600006 -0.699982,-0.799988c-0.300018,-0.200012 -0.700012,-0.300018 -1.200012,-0.300018c-0.600006,0 -1.100006,0.100006 -1.5,0.400024c-0.399994,0.299988 -0.799988,0.699982 -1,1.099976s-0.5,1 -0.700012,1.5c-0.199982,0.600006 -0.299988,1.100006 -0.399994,1.700012c-0.100006,0.600006 -0.199982,1.100006 -0.199982,1.700012c0,0.5 0,1 0,1.399994v8.399994c0,0.700012 0.099976,1.299988 0.299988,1.700012c0.200012,0.399994 0.399994,0.799988 0.700012,1c0.299988,0.199982 0.699982,0.399994 1.099976,0.399994c0.400024,0.100006 0.900024,0.100006 1.300018,0.100006h1.600006l-0.200012,2.899994c0,0 0,0 0,0z" fill="#374449"/>
  </g>
  <g id="svg_16">
   <path id="svg_17" d="m305.600006,445.200012c0,4.600006 -1.100006,8 -3.199982,10.299988c-2.200012,2.300018 -5.300018,3.400024 -9.5,3.400024c-2,0 -3.700012,-0.300018 -5.300018,-0.800018s-2.899994,-1.399994 -4,-2.5c-1.100006,-1.100006 -1.899994,-2.5 -2.5,-4.299988c-0.600006,-1.700012 -0.899994,-3.700012 -0.899994,-6c0,-4.600006 1.100006,-8 3.200012,-10.200012c2.199982,-2.199982 5.299988,-3.399994 9.5,-3.399994c2,0 3.699982,0.299988 5.299988,0.799988c1.5,0.600006 2.899994,1.400024 4,2.5c1.100006,1.100006 1.899994,2.5 2.5,4.300018c0.599976,1.599976 0.899994,3.599976 0.899994,5.899994zm-17.700012,0c0,1.700012 0.100006,3.299988 0.299988,4.600006c0.200012,1.299988 0.5,2.399994 0.899994,3.299988c0.400024,0.899994 0.900024,1.600006 1.600006,2c0.700012,0.5 1.399994,0.700012 2.399994,0.700012c0.900024,0 1.700012,-0.200012 2.400024,-0.700012c0.599976,-0.5 1.199982,-1.100006 1.599976,-2c0.400024,-0.899994 0.700012,-2 0.900024,-3.299988c0.199982,-1.300018 0.299988,-2.800018 0.299988,-4.600006c0,-1.700012 -0.100006,-3.299988 -0.299988,-4.600006c-0.200012,-1.299988 -0.5,-2.399994 -0.900024,-3.299988c-0.399994,-0.899994 -0.899994,-1.5 -1.599976,-2c-0.700012,-0.399994 -1.400024,-0.700012 -2.400024,-0.700012c-0.899994,0 -1.699982,0.200012 -2.399994,0.700012c-0.699982,0.399994 -1.199982,1.100006 -1.600006,2c-0.399994,0.899994 -0.699982,2 -0.899994,3.299988c-0.299988,1.299988 -0.299988,2.899994 -0.299988,4.600006z" fill="#374449"/>
  </g>
  <g id="svg_18">
   <path id="svg_19" d="m324.600006,458.399994l-1.100006,-3.5h-0.199982c-0.5,0.799988 -1,1.5 -1.600006,2c-0.600006,0.5 -1.200012,0.899994 -1.799988,1.199982c-0.700012,0.300018 -1.300018,0.5 -2.100006,0.600006s-1.5,0.100006 -2.200012,0.100006c-2.5,0 -4.5,-0.799988 -5.799988,-2.399994c-1.399994,-1.600006 -2,-4 -2,-7.300018v-10.899994c0,-0.699982 -0.100006,-1.299988 -0.200012,-1.699982c-0.100006,-0.400024 -0.299988,-0.800018 -0.600006,-1c-0.299988,-0.300018 -0.599976,-0.400024 -1,-0.5c-0.399994,-0.100006 -0.899994,-0.100006 -1.5,-0.100006h-0.099976v-2.600006h10.799988v15.600006c0,1 0.100006,2 0.200012,2.799988c0.099976,0.800018 0.299988,1.600006 0.599976,2.200012c0.300018,0.600006 0.700012,1.100006 1.100006,1.399994c0.5,0.299988 1.100006,0.5 1.800018,0.5c0.799988,0 1.399994,-0.200012 2,-0.5c0.599976,-0.299988 1,-0.799988 1.399994,-1.5c0.399994,-0.600006 0.600006,-1.399994 0.799988,-2.299988c0.200012,-0.900024 0.200012,-1.900024 0.200012,-3.100006v-9.399994c0,-0.700012 -0.100006,-1.299988 -0.300018,-1.700012c-0.199982,-0.399994 -0.399994,-0.700012 -0.799988,-0.899994c-0.299988,-0.200012 -0.700012,-0.399994 -1.100006,-0.399994c-0.399994,-0.100006 -0.899994,-0.100006 -1.399994,-0.100006h-0.100006v-2.600006h11.100006v20.5c0,0.700012 0.100006,1.299988 0.200012,1.700012c0.199982,0.399994 0.399994,0.700012 0.699982,0.899994c0.300018,0.200012 0.600006,0.300018 1,0.399994s0.800018,0.100006 1.300018,0.100006h0.399994v2.600006l-9.700012,-0.100006l0,0l0,0z" fill="#374449"/>
   <path id="svg_20" d="m355.799988,436.299988c0,-0.600006 -0.200012,-1 -0.700012,-1.200012c-0.5,-0.199982 -1.099976,-0.299988 -1.799988,-0.299988h-0.100006v-2.600006h11.300018v2.600006h-0.5c-0.5,0 -0.899994,0 -1.299988,0.100006c-0.400024,0.100006 -0.700012,0.199982 -1.100006,0.5c-0.399994,0.199982 -0.800018,0.5 -1.200012,1c-0.399994,0.399994 -0.899994,0.899994 -1.399994,1.600006l-5,6.099976l7.200012,9.100006c0.699982,0.899994 1.399994,1.600006 2.099976,2c0.600006,0.399994 1.200012,0.600006 1.800018,0.600006h0.600006v2.600006h-15.5v-2.600006h0.299988c2,0 2.899994,-0.5 2.899994,-1.600006c0,-0.199982 0,-0.399994 -0.100006,-0.600006c0,-0.199982 -0.099976,-0.399994 -0.299988,-0.699982c-0.100006,-0.300018 -0.299988,-0.600006 -0.600006,-0.899994c-0.199982,-0.300018 -0.600006,-0.800018 -1,-1.200012l-2.799988,-3.399994l-3.399994,4.199982c-0.300018,0.400024 -0.5,0.800018 -0.700012,1.200012c-0.200012,0.399994 -0.299988,0.799988 -0.299988,1.200012c0,0.5 0.199982,0.899994 0.699982,1.199982c0.5,0.300018 1.200012,0.399994 2.300018,0.399994h0.099976v2.600006h-12.399994v-2.600006h0.399994c0.600006,0 1.100006,-0.099976 1.5,-0.199982c0.400024,-0.100006 0.900024,-0.300018 1.200012,-0.5c0.399994,-0.200012 0.799988,-0.600006 1.200012,-1c0.399994,-0.399994 0.799988,-0.899994 1.299988,-1.5l6.100006,-7.399994l-6.100006,-7.900024c-0.700012,-0.899994 -1.399994,-1.5 -2,-1.899994c-0.700012,-0.399994 -1.399994,-0.600006 -2.100006,-0.600006h-0.600006v-2.599976h15.300018v2.599976h-0.200012c-0.600006,0 -1,0 -1.399994,0.100006s-0.600006,0.200012 -0.799988,0.300018s-0.300018,0.299988 -0.400024,0.5c-0.099976,0.199982 -0.099976,0.399994 -0.099976,0.5c0,0.299988 0.099976,0.699982 0.299988,1c0.200012,0.299988 0.5,0.699982 0.899994,1.199982l2.700012,3.300018l2.299988,-2.800018c0.399994,-0.5 0.700012,-1 0.899994,-1.399994c0.400024,-0.099976 0.5,-0.599976 0.5,-1z" fill="#374449"/>
  </g>
  <circle id="svg_21" r="13.7" cy="368.7" cx="170.6" fill="#FDF6E4"/>
  <circle id="svg_22" r="13.7" cy="368.7" cx="201.8" fill="#FDF6E4"/>
  <circle id="svg_23" r="13.7" cy="368.7" cx="233.1" fill="#FDF6E4"/>
  <circle id="svg_24" r="13.7" cy="398.7" cx="170.6" fill="#FDF6E4"/>
  <circle id="svg_25" r="13.7" cy="398.7" cx="201.8" fill="#3E7D9B"/>
  <circle id="svg_26" r="13.7" cy="398.7" cx="233.1" fill="#FDF6E4"/>
  <circle id="svg_27" r="13.7" cy="428.7" cx="170.6" fill="#3E7D9B"/>
  <circle id="svg_28" r="13.7" cy="428.7" cx="201.8" fill="#3E7D9B"/>
  <circle id="svg_29" r="13.7" cy="428.7" cx="233.1" fill="#FDF6E4"/>
 </g>
 <g>
  <title>Layer 2</title>
  <rect id="svg_62" height="143.000005" width="215.999991" y="4.300003" x="7.049992" stroke-linecap="null" stroke-linejoin="null" stroke-width="5" stroke="null" fill="null"/>
 </g>
 <g display="inline">
  <title>Layer 1 copy</title>
  <g id="svg_32">
   <path id="svg_33" d="m155.399994,464.700012c-0.699997,0 -1.300003,0.200012 -1.800003,0.5c-0.5,0.299988 -0.899994,0.700012 -1.199997,1.299988c-0.300003,0.5 -0.5,1.200012 -0.600006,1.900024c-0.099991,0.699982 -0.199997,1.599976 -0.199997,2.399994c-2.5,0 -4.399994,-0.300018 -5.699997,-0.899994c-1.300003,-0.600006 -1.900009,-1.5 -1.900009,-2.900024c0,-1 0.300003,-1.899994 0.900009,-2.599976c0.599991,-0.700012 1.399994,-1.300018 2.5,-1.800018c1.099991,-0.5 2.300003,-0.799988 3.699997,-1c1.399994,-0.199982 2.899994,-0.299988 4.5,-0.299988c2,0 3.699997,0.199982 5.199997,0.5c1.5,0.299988 2.699997,0.899994 3.699997,1.600006c1,0.799988 1.700012,1.699982 2.200012,3c0.5,1.199982 0.699997,2.699982 0.699997,4.5v14.299988c0,0.799988 0.099991,1.399994 0.199997,1.899994c0.100006,0.5 0.300003,0.899994 0.600006,1.200012c0.299988,0.299988 0.599991,0.5 1,0.600006c0.399994,0.099976 1,0.199982 1.599991,0.199982h0.199997v3h-10.5l-1.199997,-3.899994h-0.5c-0.599991,0.799988 -1.199997,1.399994 -1.800003,2c-0.5,0.600006 -1.099991,1 -1.799988,1.399994c-0.600006,0.399994 -1.300003,0.600006 -2.100006,0.800018c-0.800003,0.199982 -1.699997,0.299988 -2.800003,0.299988c-1.199997,0 -2.399994,-0.200012 -3.5,-0.600006c-1.099991,-0.399994 -2,-0.899994 -2.800003,-1.699982c-0.799988,-0.800018 -1.399994,-1.700012 -1.899994,-2.900024c-0.5,-1.099976 -0.699997,-2.5 -0.699997,-4.099976c0,-3.100006 1,-5.300018 3.099991,-6.800018c2.100006,-1.5 5.300003,-2.299988 9.5,-2.399994l4.600006,-0.200012v-3.099976c0,-0.900024 0,-1.800018 -0.100006,-2.600006c-0.099991,-0.800018 -0.199997,-1.5 -0.5,-2c-0.199997,-0.600006 -0.599991,-1 -1.099991,-1.300018c-0.099991,-0.200012 -0.699997,-0.299988 -1.5,-0.299988zm-5,19c0,1.600006 0.300003,2.799988 0.800003,3.600006s1.299988,1.199982 2.399994,1.199982c0.800003,0 1.5,-0.199982 2.199997,-0.5c0.600006,-0.299988 1.199997,-0.799988 1.699997,-1.399994c0.5,-0.600006 0.800003,-1.399994 1.100006,-2.299988c0.199997,-0.899994 0.399994,-1.899994 0.399994,-3v-4.200012l-2.5,0.200012c-1.099991,0.100006 -2.099991,0.199982 -2.799988,0.5c-0.800003,0.299988 -1.400009,0.699982 -1.800003,1.199982c-0.5,0.5 -0.800003,1.200012 -1,1.900024c-0.399994,0.899963 -0.5,1.799988 -0.5,2.799988z" fill="#3E7D9B"/>
  </g>
  <g id="svg_34">
   <path id="svg_35" d="m183.800003,492.700012c-2.100006,0 -4,-0.299988 -5.699997,-0.799988c-1.700012,-0.5 -3.200012,-1.400024 -4.400009,-2.600006c-1.199997,-1.200012 -2.199997,-2.800018 -2.899994,-4.800018c-0.699997,-2 -1,-4.399994 -1,-7.299988c0,-3 0.399994,-5.600006 1.099991,-7.600006c0.700012,-2 1.700012,-3.699982 2.900009,-4.899994c1.199997,-1.200012 2.699997,-2.100006 4.399994,-2.600006c1.699997,-0.5 3.5,-0.799988 5.400009,-0.799988c1.799988,0 3.399994,0.100006 4.799988,0.5c1.400009,0.299988 2.600006,0.699982 3.5,1.199982c0.900009,0.5 1.600006,1.200012 2.100006,1.900024c0.5,0.699982 0.699997,1.5 0.699997,2.299988c0,0.600006 -0.099991,1.200012 -0.300003,1.799988c-0.199997,0.600006 -0.599991,1.100006 -1.099991,1.5c-0.5,0.400024 -1.300003,0.800018 -2.199997,1.100006c-0.900009,0.300018 -2.100006,0.399994 -3.600006,0.399994c0,-1 -0.100006,-1.899994 -0.199997,-2.799988s-0.300003,-1.600006 -0.600006,-2.299988s-0.599991,-1.200012 -1.099991,-1.600006c-0.5,-0.399994 -1.100006,-0.600006 -1.800003,-0.600006c-0.800003,0 -1.600006,0.200012 -2.199997,0.600006c-0.700012,0.399994 -1.200012,1.100006 -1.700012,2c-0.5,1 -0.799988,2.199982 -1.099991,3.799988c-0.199997,1.600006 -0.400009,3.600006 -0.400009,6c0,3.800018 0.5,6.700012 1.600006,8.5c1,1.899994 2.699997,2.800018 5.100006,2.800018c1,0 1.899994,-0.100006 2.699997,-0.300018s1.599991,-0.5 2.300003,-1c0.699997,-0.399994 1.299988,-0.899994 1.799988,-1.5s0.900009,-1.199982 1.300003,-1.799988c0.5,0.299988 0.800003,0.600006 1,1.100006c0.199997,0.5 0.300003,1 0.300003,1.5c0,0.699982 -0.199997,1.399994 -0.600006,2.199982c-0.399994,0.700012 -1.099991,1.399994 -2,2c-0.899994,0.600006 -2,1.100006 -3.399994,1.5c-1.100006,0.399994 -2.800003,0.600006 -4.699997,0.600006z" fill="#3E7D9B"/>
  </g>
  <g id="svg_36">
   <path id="svg_37" d="m209.800003,464.700012c-0.699997,0 -1.300003,0.200012 -1.800003,0.5c-0.5,0.299988 -0.899994,0.700012 -1.199997,1.299988c-0.300003,0.5 -0.5,1.200012 -0.600006,1.900024c-0.099991,0.699982 -0.199997,1.599976 -0.199997,2.399994c-2.5,0 -4.399994,-0.300018 -5.699997,-0.899994c-1.300003,-0.600006 -1.900009,-1.5 -1.900009,-2.900024c0,-1 0.300003,-1.899994 0.900009,-2.599976c0.599991,-0.700012 1.399994,-1.300018 2.5,-1.800018c1.099991,-0.5 2.300003,-0.799988 3.699997,-1c1.399994,-0.199982 2.899994,-0.299988 4.5,-0.299988c2,0 3.699997,0.199982 5.199997,0.5c1.5,0.299988 2.699997,0.899994 3.699997,1.600006c1,0.799988 1.700012,1.699982 2.200012,3c0.5,1.199982 0.699997,2.699982 0.699997,4.5v14.299988c0,0.799988 0.099991,1.399994 0.199997,1.899994c0.100006,0.5 0.300003,0.899994 0.600006,1.200012c0.299988,0.299988 0.599991,0.5 1,0.600006c0.399994,0.099976 1,0.199982 1.599991,0.199982h0.199997v3h-10.5l-1.199997,-3.899994h-0.5c-0.599991,0.799988 -1.199997,1.399994 -1.800003,2c-0.5,0.600006 -1.099991,1 -1.799988,1.399994c-0.600006,0.399994 -1.300003,0.600006 -2.100006,0.800018c-0.800003,0.199982 -1.699997,0.299988 -2.800003,0.299988c-1.199997,0 -2.399994,-0.200012 -3.5,-0.600006c-1.099991,-0.399994 -2,-0.899994 -2.800003,-1.699982c-0.799988,-0.800018 -1.399994,-1.700012 -1.899994,-2.900024c-0.5,-1.099976 -0.699997,-2.5 -0.699997,-4.099976c0,-3.100006 1,-5.300018 3.099991,-6.800018c2.100006,-1.5 5.300003,-2.299988 9.5,-2.399994l4.600006,-0.200012v-3.099976c0,-0.900024 0,-1.800018 -0.100006,-2.600006c-0.099991,-0.800018 -0.199997,-1.5 -0.5,-2c-0.199997,-0.600006 -0.599991,-1 -1.099991,-1.300018c-0.100006,-0.200012 -0.800003,-0.299988 -1.5,-0.299988zm-5,19c0,1.600006 0.300003,2.799988 0.800003,3.600006s1.299988,1.199982 2.399994,1.199982c0.800003,0 1.5,-0.199982 2.199997,-0.5c0.699997,-0.299988 1.199997,-0.799988 1.699997,-1.399994c0.5,-0.600006 0.800003,-1.399994 1.100006,-2.299988c0.199997,-0.899994 0.399994,-1.899994 0.399994,-3v-4.200012l-2.5,0.200012c-1.099991,0.100006 -2.099991,0.199982 -2.799988,0.5c-0.800003,0.299988 -1.400009,0.699982 -1.800003,1.199982c-0.5,0.5 -0.800003,1.200012 -1,1.900024c-0.400009,0.899963 -0.5,1.799988 -0.5,2.799988z" fill="#3E7D9B"/>
   <path id="svg_38" d="m252.600006,485.200012c0,0.899994 0.100006,1.5 0.400009,2.100006c0.299988,0.5 0.599991,0.899994 1,1.199982c0.399994,0.300018 0.899994,0.5 1.5,0.600006s1.099991,0.100006 1.800003,0.100006h0.199982v3h-10.899994l-1.599991,-4.399994h-0.5c-0.400009,0.799988 -0.900009,1.5 -1.400009,2.100006c-0.5,0.599976 -1.199997,1.099976 -1.899994,1.599976c-0.699997,0.400024 -1.5,0.800018 -2.400009,1c-0.899994,0.200012 -1.899994,0.300018 -3,0.300018c-1.799988,0 -3.5,-0.300018 -4.899994,-0.899994s-2.600006,-1.600006 -3.600006,-2.800018c-1,-1.299988 -1.699997,-2.899994 -2.199997,-4.799988c-0.5,-2 -0.800003,-4.300018 -0.800003,-7c0,-2.700012 0.300003,-5.100006 0.800003,-7s1.199997,-3.600006 2.199997,-4.899994c1,-1.300018 2.200012,-2.300018 3.600006,-2.900024c1.399994,-0.599976 3,-0.899994 4.800003,-0.899994c1.099991,0 2,0.100006 2.899994,0.300018c0.900009,0.199982 1.600006,0.5 2.300003,0.899994c0.699997,0.399994 1.300003,0.899994 1.800003,1.399994c0.5,0.5 1,1.200012 1.399994,1.799988h0.400009c-0.100006,-1 -0.100006,-2 -0.200012,-2.899994c0,-0.399994 0,-0.799988 -0.099991,-1.199982c0,-0.400024 -0.100006,-0.800018 -0.100006,-1.100006c0,-0.399994 0,-0.700012 -0.099991,-0.899994c0,-0.300018 0,-0.5 0,-0.700012v-3.100006c0,-0.799988 -0.100006,-1.399994 -0.400009,-1.899994c-0.199997,-0.5 -0.599991,-0.799988 -1,-1.100006c-0.399994,-0.199982 -0.899994,-0.399994 -1.399994,-0.5c-0.600006,-0.100006 -1.100006,-0.100006 -1.800003,-0.100006h-0.399994v-3h13.5l0.099991,35.700012l0,0zm-14.300003,3.299988c1.099991,0 2,-0.200012 2.800003,-0.700012c0.699997,-0.5 1.299988,-1.199982 1.799988,-2.099976c0.400009,-1 0.800003,-2.100006 0.900009,-3.600006c0.199997,-1.399994 0.300003,-3.100006 0.300003,-5.100006c0,-1.899994 -0.100006,-3.5 -0.300003,-4.899994c-0.199997,-1.399994 -0.5,-2.600006 -0.900009,-3.600006c-0.399994,-1 -1,-1.700012 -1.799988,-2.200012c-0.700012,-0.5 -1.700012,-0.799988 -2.800003,-0.799988c-0.900009,0 -1.699997,0.299988 -2.400009,0.799988c-0.699997,0.5 -1.199997,1.200012 -1.599991,2.200012c-0.400009,1 -0.699997,2.200012 -0.900009,3.600006c-0.199997,1.399994 -0.299988,3.100006 -0.299988,5c0,3.799988 0.399994,6.699982 1.199997,8.600006c0.800003,1.799988 2.099991,2.799988 4,2.799988z" fill="#3E7D9B"/>
  </g>
  <g id="svg_39">
   <path id="svg_40" d="m269.700012,492.700012c-2.399994,0 -4.5,-0.299988 -6.299988,-1c-1.800018,-0.700012 -3.300018,-1.700012 -4.600006,-3c-1.200012,-1.299988 -2.200012,-2.899994 -2.800018,-4.899994c-0.599991,-1.899994 -0.899994,-4.100006 -0.899994,-6.600006c0,-2.600006 0.300003,-5 0.899994,-6.899994c0.600006,-2 1.5,-3.700012 2.700012,-5c1.200012,-1.300018 2.700012,-2.300018 4.399994,-3c1.700012,-0.700012 3.700012,-1 5.899994,-1c2,0 3.900024,0.299988 5.5,0.899994c1.600006,0.600006 3,1.399994 4.100006,2.600006c1.100006,1.100006 2,2.5 2.600006,4.199982c0.600006,1.700012 0.899994,3.600006 0.899994,5.900024v2.899994h-18.399994c0.100006,1.899994 0.299988,3.5 0.600006,4.899994c0.399994,1.399994 0.899994,2.5 1.5,3.399994c0.600006,0.899994 1.399994,1.5 2.299988,1.899994c0.899994,0.400024 1.899994,0.600006 3.100006,0.600006c1,0 1.899994,-0.100006 2.700012,-0.299988s1.599976,-0.5 2.199982,-1c0.700012,-0.399994 1.300018,-0.899994 1.800018,-1.5c0.5,-0.600006 0.899994,-1.200012 1.199982,-1.800018c1,0.5 1.5,1.5 1.5,2.700012c0,0.799988 -0.199982,1.600006 -0.699982,2.299988s-1.100006,1.400024 -2,1.900024c-0.900024,0.5 -2.100006,1 -3.400024,1.299988c-1.299988,0.299988 -2.899994,0.5 -4.799988,0.5zm-0.5,-27.800018c-1.600006,0 -2.799988,0.799988 -3.799988,2.299988c-0.900024,1.600006 -1.400024,3.800018 -1.5,6.800018h9.699982c0,-1.400024 -0.100006,-2.700012 -0.199982,-3.800018c-0.200012,-1.100006 -0.400024,-2.100006 -0.800018,-2.899994c-0.399994,-0.799988 -0.799988,-1.399994 -1.399994,-1.799988c-0.5,-0.399994 -1.200012,-0.600006 -2,-0.600006z" fill="#3E7D9B"/>
  </g>
  <g id="svg_41">
   <path id="svg_42" d="m303.700012,492.100006v-18.5c0,-1.199982 -0.100006,-2.299988 -0.200012,-3.199982c-0.199982,-0.900024 -0.399994,-1.700012 -0.799988,-2.400024c-0.399994,-0.599976 -0.799988,-1.099976 -1.399994,-1.5c-0.600006,-0.299988 -1.300018,-0.5 -2.100006,-0.5c-0.899994,0 -1.700012,0.200012 -2.299988,0.700012c-0.600006,0.5 -1.100006,1.100006 -1.5,1.899994s-0.600006,1.700012 -0.800018,2.800018c-0.199982,1.099976 -0.199982,2.199982 -0.199982,3.299988v10.700012c0,0.799988 0.099976,1.399994 0.299988,1.899994c0.200012,0.5 0.5,0.799988 0.799988,1.100006c0.300018,0.299988 0.800018,0.399994 1.300018,0.5c0.5,0.099976 1.100006,0.099976 1.699982,0.099976h0.200012v3h-17.299988v-3h0.099976c0.600006,0 1.200012,0 1.800018,-0.099976c0.5,-0.100006 1,-0.300018 1.399994,-0.5c0.399994,-0.300018 0.700012,-0.700012 0.899994,-1.200012c0.200012,-0.5 0.300018,-1.200012 0.300018,-2v-16.799988c0,-0.800018 -0.100006,-1.400024 -0.300018,-1.900024c-0.199982,-0.5 -0.5,-0.799988 -0.799988,-1.099976c-0.399994,-0.300018 -0.800018,-0.400024 -1.300018,-0.5c-0.5,-0.100006 -1.099976,-0.100006 -1.699982,-0.100006h-0.200012v-2.800018h11.800018l0.699982,4h0.300018c0.599976,-1.100006 1.199982,-1.899994 1.799988,-2.5c0.600006,-0.600006 1.299988,-1.100006 2,-1.399994c0.700012,-0.300018 1.5,-0.5 2.299988,-0.600006c0.800018,-0.100006 1.600006,-0.100006 2.5,-0.100006c2.100006,0 3.800018,0.399994 5.300018,1.100006c1.5,0.700012 2.5,1.899994 3.199982,3.600006h0.5c0.600006,-1.100006 1.200012,-1.899994 1.900024,-2.5c0.699982,-0.600006 1.399994,-1.100006 2.099976,-1.399994c0.800018,-0.300018 1.600006,-0.5 2.400024,-0.600006c0.799988,-0.100006 1.699982,-0.100006 2.599976,-0.100006c1.400024,0 2.700012,0.200012 3.900024,0.600006c1.199982,0.399994 2.099976,1.100006 2.899994,2c0.799988,0.899994 1.399994,2 1.799988,3.399994c0.399994,1.399994 0.600006,3 0.600006,4.899994v13.100006c0,0.899994 0.100006,1.600006 0.200012,2.100006s0.399994,0.899994 0.699982,1.199982c0.300018,0.300018 0.700012,0.5 1.200012,0.600006c0.5,0.100006 1,0.100006 1.600006,0.100006h0.199982v3h-12.5v-18.5c0,-2.399994 -0.299988,-4.299988 -1,-5.600006c-0.699982,-1.299988 -1.799988,-2 -3.5,-2c-0.899994,0 -1.600006,0.200012 -2.299988,0.600006c-0.600006,0.399994 -1.100006,1 -1.5,1.700012c-0.399994,0.699982 -0.700012,1.599976 -0.899994,2.599976c-0.200012,1 -0.300018,2 -0.300018,3.100006v11.100006c0,0.899994 0.100006,1.600006 0.200012,2.100006s0.399994,0.899994 0.699982,1.199982c0.300018,0.300018 0.700012,0.5 1.200012,0.600006c0.5,0.100006 1,0.100006 1.700012,0.100006h0.199982v3l-12.399994,-0.399994l0,0l0,0z" fill="#3E7D9B"/>
  </g>
  <g id="svg_43">
   <path id="svg_44" d="m362.5,462v3c-0.600006,0 -1.100006,0.100006 -1.5,0.200012c-0.399994,0.099976 -0.799988,0.399994 -1.200012,0.699982c-0.299988,0.300018 -0.699982,0.700012 -1,1.300018s-0.599976,1.199982 -0.899994,2c-0.699982,1.899994 -1.299988,3.799988 -2.100006,5.699982c-0.699982,1.899994 -1.399994,3.899994 -2.199982,5.800018c-0.700012,2 -1.399994,3.899994 -2.200012,5.799988c-0.699982,1.899994 -1.399994,3.799988 -2.100006,5.700012c-0.699982,1.799988 -1.299988,3.399994 -1.899994,4.799988c-0.600006,1.399994 -1.199982,2.600006 -1.899994,3.600006c-0.600006,1 -1.399994,1.799988 -2.200012,2.5s-1.699982,1.199982 -2.699982,1.600006c-1,0.399994 -2.300018,0.699982 -3.600006,0.799988c-1.399994,0.200012 -3,0.200012 -4.799988,0.200012h-1v-3.300018c2,0 3.599976,-0.199982 5,-0.699982s2.5,-1.200012 3.5,-2c1,-0.900024 1.699982,-1.900024 2.299988,-3.200012c0.600006,-1.200012 1.100006,-2.600006 1.600006,-4.100006l-10.100006,-24.799988c-0.200012,-0.5 -0.5,-1 -0.700012,-1.300018c-0.299988,-0.299988 -0.599976,-0.599976 -0.899994,-0.699982c-0.299988,-0.200012 -0.600006,-0.300018 -1,-0.300018c-0.399994,0 -0.799988,-0.099976 -1.199982,-0.099976v-3.200012h16v3c-1.100006,0 -2,0.100006 -2.600006,0.399994s-0.899994,0.800018 -0.899994,1.700012c0,0.299988 0.099976,0.699982 0.199982,1.100006c0.100006,0.399994 0.200012,0.799988 0.399994,1.099976c0.300018,0.800018 0.700012,1.600006 1,2.600006c0.400024,0.899994 0.700012,1.899994 1,2.800018c0.300018,0.899994 0.700012,1.799988 1,2.699982c0.300018,0.899994 0.600006,1.600006 0.800018,2.300018c0.299988,0.699982 0.5,1.399994 0.699982,1.899994s0.300018,1.100006 0.5,1.600006c0.100006,0.5 0.200012,0.899994 0.300018,1.299988c0.100006,0.399994 0.100006,0.799988 0.199982,1.200012c0,-0.400024 0.100006,-0.800018 0.200012,-1.300018c0.100006,-0.5 0.200012,-0.899994 0.399994,-1.299988s0.300018,-0.800018 0.399994,-1.200012c0.100006,-0.299988 0.200012,-0.600006 0.300018,-0.699982l3.699982,-11c0.100006,-0.200012 0.100006,-0.400024 0.200012,-0.600006c0.100006,-0.200012 0.100006,-0.5 0.200012,-0.800018c0.099976,-0.299988 0.099976,-0.5 0.099976,-0.699982c0,-0.200012 0,-0.399994 0,-0.600006c0,-0.899994 -0.399994,-1.5 -1.099976,-1.799988c-0.700012,-0.300018 -1.700012,-0.5 -3,-0.5v-3h12.799988l0,-0.200012z" fill="#3E7D9B"/>
  </g>
  <g id="svg_45">
   <path id="svg_46" d="m273.700012,458.399994h-16.299988v-2.600006h0.099976c0.600006,0 1.100006,0 1.5,-0.100006c0.5,-0.100006 0.900024,-0.199982 1.200012,-0.5c0.299988,-0.199982 0.600006,-0.600006 0.799988,-1.100006c0.200012,-0.5 0.300018,-1.099976 0.300018,-1.799988v-14.100006c0,-0.699982 -0.100006,-1.299988 -0.200012,-1.699982c-0.199982,-0.400024 -0.399994,-0.800018 -0.699982,-1c-0.300018,-0.200012 -0.700012,-0.400024 -1.100006,-0.5c-0.399994,-0.100006 -0.899994,-0.100006 -1.5,-0.100006h-0.100006v-2.600006h9.899994l1,3.799988h0.200012c0.299988,-0.699982 0.699982,-1.399994 1,-1.899994c0.399994,-0.5 0.799988,-1 1.399994,-1.399994c0.5,-0.399994 1.200012,-0.600006 1.899994,-0.799988c0.700012,-0.200012 1.600006,-0.300018 2.600006,-0.300018c1.899994,0 3.299988,0.300018 4.200012,1c0.899994,0.700012 1.399994,1.700012 1.399994,2.899994c0,1.5 -0.5,2.700012 -1.600006,3.5c-1.100006,0.800018 -2.600006,1.200012 -4.600006,1.200012c0,-0.700012 0,-1.299988 -0.100006,-1.799988c-0.099976,-0.5 -0.199982,-0.900024 -0.399994,-1.300018c-0.199982,-0.299988 -0.399994,-0.600006 -0.699982,-0.799988c-0.300018,-0.200012 -0.700012,-0.300018 -1.200012,-0.300018c-0.600006,0 -1.100006,0.100006 -1.5,0.400024c-0.399994,0.299988 -0.799988,0.699982 -1,1.099976s-0.5,1 -0.700012,1.5c-0.199982,0.600006 -0.299988,1.100006 -0.399994,1.700012c-0.100006,0.600006 -0.199982,1.100006 -0.199982,1.700012c0,0.5 0,1 0,1.399994v8.399994c0,0.700012 0.099976,1.299988 0.299988,1.700012c0.200012,0.399994 0.399994,0.799988 0.700012,1c0.299988,0.199982 0.699982,0.399994 1.099976,0.399994c0.400024,0.100006 0.900024,0.100006 1.300018,0.100006h1.600006l-0.200012,2.899994c0,0 0,0 0,0z" fill="#374449"/>
  </g>
  <g id="svg_47">
   <path id="svg_48" d="m305.600006,445.200012c0,4.600006 -1.100006,8 -3.199982,10.299988c-2.200012,2.300018 -5.300018,3.400024 -9.5,3.400024c-2,0 -3.700012,-0.300018 -5.300018,-0.800018s-2.899994,-1.399994 -4,-2.5c-1.100006,-1.100006 -1.899994,-2.5 -2.5,-4.299988c-0.600006,-1.700012 -0.899994,-3.700012 -0.899994,-6c0,-4.600006 1.100006,-8 3.200012,-10.200012c2.199982,-2.199982 5.299988,-3.399994 9.5,-3.399994c2,0 3.699982,0.299988 5.299988,0.799988c1.5,0.600006 2.899994,1.400024 4,2.5c1.100006,1.100006 1.899994,2.5 2.5,4.300018c0.599976,1.599976 0.899994,3.599976 0.899994,5.899994zm-17.700012,0c0,1.700012 0.100006,3.299988 0.299988,4.600006c0.200012,1.299988 0.5,2.399994 0.899994,3.299988c0.400024,0.899994 0.900024,1.600006 1.600006,2c0.700012,0.5 1.399994,0.700012 2.399994,0.700012c0.900024,0 1.700012,-0.200012 2.400024,-0.700012c0.599976,-0.5 1.199982,-1.100006 1.599976,-2c0.400024,-0.899994 0.700012,-2 0.900024,-3.299988c0.199982,-1.300018 0.299988,-2.800018 0.299988,-4.600006c0,-1.700012 -0.100006,-3.299988 -0.299988,-4.600006c-0.200012,-1.299988 -0.5,-2.399994 -0.900024,-3.299988c-0.399994,-0.899994 -0.899994,-1.5 -1.599976,-2c-0.700012,-0.399994 -1.400024,-0.700012 -2.400024,-0.700012c-0.899994,0 -1.699982,0.200012 -2.399994,0.700012c-0.699982,0.399994 -1.199982,1.100006 -1.600006,2c-0.399994,0.899994 -0.699982,2 -0.899994,3.299988c-0.299988,1.299988 -0.299988,2.899994 -0.299988,4.600006z" fill="#374449"/>
  </g>
  <g id="svg_49">
   <path id="svg_50" d="m324.600006,458.399994l-1.100006,-3.5h-0.199982c-0.5,0.799988 -1,1.5 -1.600006,2c-0.600006,0.5 -1.200012,0.899994 -1.799988,1.199982c-0.700012,0.300018 -1.300018,0.5 -2.100006,0.600006s-1.5,0.100006 -2.200012,0.100006c-2.5,0 -4.5,-0.799988 -5.799988,-2.399994c-1.399994,-1.600006 -2,-4 -2,-7.300018v-10.899994c0,-0.699982 -0.100006,-1.299988 -0.200012,-1.699982c-0.100006,-0.400024 -0.299988,-0.800018 -0.600006,-1c-0.299988,-0.300018 -0.599976,-0.400024 -1,-0.5c-0.399994,-0.100006 -0.899994,-0.100006 -1.5,-0.100006h-0.099976v-2.600006h10.799988v15.600006c0,1 0.100006,2 0.200012,2.799988c0.099976,0.800018 0.299988,1.600006 0.599976,2.200012c0.300018,0.600006 0.700012,1.100006 1.100006,1.399994c0.5,0.299988 1.100006,0.5 1.800018,0.5c0.799988,0 1.399994,-0.200012 2,-0.5c0.599976,-0.299988 1,-0.799988 1.399994,-1.5c0.399994,-0.600006 0.600006,-1.399994 0.799988,-2.299988c0.200012,-0.900024 0.200012,-1.900024 0.200012,-3.100006v-9.399994c0,-0.700012 -0.100006,-1.299988 -0.300018,-1.700012c-0.199982,-0.399994 -0.399994,-0.700012 -0.799988,-0.899994c-0.299988,-0.200012 -0.700012,-0.399994 -1.100006,-0.399994c-0.399994,-0.100006 -0.899994,-0.100006 -1.399994,-0.100006h-0.100006v-2.600006h11.100006v20.5c0,0.700012 0.100006,1.299988 0.200012,1.700012c0.199982,0.399994 0.399994,0.700012 0.699982,0.899994c0.300018,0.200012 0.600006,0.300018 1,0.399994s0.800018,0.100006 1.300018,0.100006h0.399994v2.600006l-9.700012,-0.100006l0,0l0,0z" fill="#374449"/>
   <path id="svg_51" d="m355.799988,436.299988c0,-0.600006 -0.200012,-1 -0.700012,-1.200012c-0.5,-0.199982 -1.099976,-0.299988 -1.799988,-0.299988h-0.100006v-2.600006h11.300018v2.600006h-0.5c-0.5,0 -0.899994,0 -1.299988,0.100006c-0.400024,0.100006 -0.700012,0.199982 -1.100006,0.5c-0.399994,0.199982 -0.800018,0.5 -1.200012,1c-0.399994,0.399994 -0.899994,0.899994 -1.399994,1.600006l-5,6.099976l7.200012,9.100006c0.699982,0.899994 1.399994,1.600006 2.099976,2c0.600006,0.399994 1.200012,0.600006 1.800018,0.600006h0.600006v2.600006h-15.5v-2.600006h0.299988c2,0 2.899994,-0.5 2.899994,-1.600006c0,-0.199982 0,-0.399994 -0.100006,-0.600006c0,-0.199982 -0.099976,-0.399994 -0.299988,-0.699982c-0.100006,-0.300018 -0.299988,-0.600006 -0.600006,-0.899994c-0.199982,-0.300018 -0.600006,-0.800018 -1,-1.200012l-2.799988,-3.399994l-3.399994,4.199982c-0.300018,0.400024 -0.5,0.800018 -0.700012,1.200012c-0.200012,0.399994 -0.299988,0.799988 -0.299988,1.200012c0,0.5 0.199982,0.899994 0.699982,1.199982c0.5,0.300018 1.200012,0.399994 2.300018,0.399994h0.099976v2.600006h-12.399994v-2.600006h0.399994c0.600006,0 1.100006,-0.099976 1.5,-0.199982c0.400024,-0.100006 0.900024,-0.300018 1.200012,-0.5c0.399994,-0.200012 0.799988,-0.600006 1.200012,-1c0.399994,-0.399994 0.799988,-0.899994 1.299988,-1.5l6.100006,-7.399994l-6.100006,-7.900024c-0.700012,-0.899994 -1.399994,-1.5 -2,-1.899994c-0.700012,-0.399994 -1.399994,-0.600006 -2.100006,-0.600006h-0.600006v-2.599976h15.300018v2.599976h-0.200012c-0.600006,0 -1,0 -1.399994,0.100006s-0.600006,0.200012 -0.799988,0.300018s-0.300018,0.299988 -0.400024,0.5c-0.099976,0.199982 -0.099976,0.399994 -0.099976,0.5c0,0.299988 0.099976,0.699982 0.299988,1c0.200012,0.299988 0.5,0.699982 0.899994,1.199982l2.700012,3.300018l2.299988,-2.800018c0.399994,-0.5 0.700012,-1 0.899994,-1.399994c0.400024,-0.099976 0.5,-0.599976 0.5,-1z" fill="#374449"/>
  </g>
  <circle id="svg_52" r="13.7" cy="368.7" cx="170.6" fill="#FDF6E4"/>
  <circle id="svg_53" r="13.7" cy="368.7" cx="201.8" fill="#FDF6E4"/>
  <circle id="svg_54" r="13.7" cy="368.7" cx="233.1" fill="#FDF6E4"/>
  <circle id="svg_55" r="13.7" cy="398.7" cx="170.6" fill="#FDF6E4"/>
  <circle id="svg_56" r="13.7" cy="398.7" cx="201.8" fill="#3E7D9B"/>
  <circle id="svg_57" r="13.7" cy="398.7" cx="233.1" fill="#FDF6E4"/>
  <circle id="svg_58" r="13.7" cy="428.7" cx="170.6" fill="#3E7D9B"/>
  <circle id="svg_59" r="13.7" cy="428.7" cx="201.8" fill="#3E7D9B"/>
  <circle id="svg_60" r="13.7" cy="428.7" cx="233.1" fill="#FDF6E4"/>
  <use id="svg_61" x="24.70374" y="8.085117" transform="matrix(0.882425089551651,0,0,0.8395931971687054,0.8559453197545489,0.6155860525983547) " xlink:href="#svg_30"/>
 </g>
 <defs>
  <svg viewBox="141.7 355 224.1 150.6" y="0px" x="0px" id="svg_30" xmlns:xlink="http://www.w3.org/1999/xlink">
   <g>
    <path d="m155.399994,464.700012c-0.699997,0 -1.300003,0.200012 -1.800003,0.5c-0.5,0.299988 -0.899994,0.700012 -1.199997,1.299988c-0.300003,0.5 -0.5,1.200012 -0.600006,1.900024c-0.099991,0.699982 -0.199997,1.599976 -0.199997,2.399994c-2.5,0 -4.399994,-0.300018 -5.699997,-0.899994c-1.300003,-0.600006 -1.900009,-1.5 -1.900009,-2.900024c0,-1 0.300003,-1.899994 0.900009,-2.599976c0.599991,-0.700012 1.399994,-1.300018 2.5,-1.800018c1.099991,-0.5 2.300003,-0.799988 3.699997,-1c1.399994,-0.199982 2.899994,-0.299988 4.5,-0.299988c2,0 3.699997,0.199982 5.199997,0.5c1.5,0.299988 2.699997,0.899994 3.699997,1.600006c1,0.799988 1.700012,1.699982 2.200012,3c0.5,1.199982 0.699997,2.699982 0.699997,4.5v14.299988c0,0.799988 0.099991,1.399994 0.199997,1.899994c0.100006,0.5 0.300003,0.899994 0.600006,1.200012c0.299988,0.299988 0.599991,0.5 1,0.600006c0.399994,0.099976 1,0.199982 1.599991,0.199982h0.199997v3h-10.5l-1.199997,-3.899994h-0.5c-0.599991,0.799988 -1.199997,1.399994 -1.800003,2c-0.5,0.600006 -1.099991,1 -1.799988,1.399994c-0.600006,0.399994 -1.300003,0.600006 -2.100006,0.800018c-0.800003,0.199982 -1.699997,0.299988 -2.800003,0.299988c-1.199997,0 -2.399994,-0.200012 -3.5,-0.600006c-1.099991,-0.399994 -2,-0.899994 -2.800003,-1.699982c-0.799988,-0.800018 -1.399994,-1.700012 -1.899994,-2.900024c-0.5,-1.099976 -0.699997,-2.5 -0.699997,-4.099976c0,-3.100006 1,-5.300018 3.099991,-6.800018c2.100006,-1.5 5.300003,-2.299988 9.5,-2.399994l4.600006,-0.200012v-3.099976c0,-0.900024 0,-1.800018 -0.100006,-2.600006c-0.099991,-0.800018 -0.199997,-1.5 -0.5,-2c-0.199997,-0.600006 -0.599991,-1 -1.099991,-1.300018c-0.099991,-0.200012 -0.699997,-0.299988 -1.5,-0.299988zm-5,19c0,1.600006 0.300003,2.799988 0.800003,3.600006s1.299988,1.199982 2.399994,1.199982c0.800003,0 1.5,-0.199982 2.199997,-0.5c0.600006,-0.299988 1.199997,-0.799988 1.699997,-1.399994c0.5,-0.600006 0.800003,-1.399994 1.100006,-2.299988c0.199997,-0.899994 0.399994,-1.899994 0.399994,-3v-4.200012l-2.5,0.200012c-1.099991,0.100006 -2.099991,0.199982 -2.799988,0.5c-0.800003,0.299988 -1.400009,0.699982 -1.800003,1.199982c-0.5,0.5 -0.800003,1.200012 -1,1.900024c-0.399994,0.899963 -0.5,1.799988 -0.5,2.799988z" fill="#3E7D9B"/>
   </g>
   <g>
    <path d="m183.800003,492.700012c-2.100006,0 -4,-0.299988 -5.699997,-0.799988c-1.700012,-0.5 -3.200012,-1.400024 -4.400009,-2.600006c-1.199997,-1.200012 -2.199997,-2.800018 -2.899994,-4.800018c-0.699997,-2 -1,-4.399994 -1,-7.299988c0,-3 0.399994,-5.600006 1.099991,-7.600006c0.700012,-2 1.700012,-3.699982 2.900009,-4.899994c1.199997,-1.200012 2.699997,-2.100006 4.399994,-2.600006c1.699997,-0.5 3.5,-0.799988 5.400009,-0.799988c1.799988,0 3.399994,0.100006 4.799988,0.5c1.400009,0.299988 2.600006,0.699982 3.5,1.199982c0.900009,0.5 1.600006,1.200012 2.100006,1.900024c0.5,0.699982 0.699997,1.5 0.699997,2.299988c0,0.600006 -0.099991,1.200012 -0.300003,1.799988c-0.199997,0.600006 -0.599991,1.100006 -1.099991,1.5c-0.5,0.400024 -1.300003,0.800018 -2.199997,1.100006c-0.900009,0.300018 -2.100006,0.399994 -3.600006,0.399994c0,-1 -0.100006,-1.899994 -0.199997,-2.799988s-0.300003,-1.600006 -0.600006,-2.299988s-0.599991,-1.200012 -1.099991,-1.600006c-0.5,-0.399994 -1.100006,-0.600006 -1.800003,-0.600006c-0.800003,0 -1.600006,0.200012 -2.199997,0.600006c-0.700012,0.399994 -1.200012,1.100006 -1.700012,2c-0.5,1 -0.799988,2.199982 -1.099991,3.799988c-0.199997,1.600006 -0.400009,3.600006 -0.400009,6c0,3.800018 0.5,6.700012 1.600006,8.5c1,1.899994 2.699997,2.800018 5.100006,2.800018c1,0 1.899994,-0.100006 2.699997,-0.300018s1.599991,-0.5 2.300003,-1c0.699997,-0.399994 1.299988,-0.899994 1.799988,-1.5s0.900009,-1.199982 1.300003,-1.799988c0.5,0.299988 0.800003,0.600006 1,1.100006c0.199997,0.5 0.300003,1 0.300003,1.5c0,0.699982 -0.199997,1.399994 -0.600006,2.199982c-0.399994,0.700012 -1.099991,1.399994 -2,2c-0.899994,0.600006 -2,1.100006 -3.399994,1.5c-1.100006,0.399994 -2.800003,0.600006 -4.699997,0.600006z" fill="#3E7D9B"/>
   </g>
   <g>
    <path d="m209.800003,464.700012c-0.699997,0 -1.300003,0.200012 -1.800003,0.5c-0.5,0.299988 -0.899994,0.700012 -1.199997,1.299988c-0.300003,0.5 -0.5,1.200012 -0.600006,1.900024c-0.099991,0.699982 -0.199997,1.599976 -0.199997,2.399994c-2.5,0 -4.399994,-0.300018 -5.699997,-0.899994c-1.300003,-0.600006 -1.900009,-1.5 -1.900009,-2.900024c0,-1 0.300003,-1.899994 0.900009,-2.599976c0.599991,-0.700012 1.399994,-1.300018 2.5,-1.800018c1.099991,-0.5 2.300003,-0.799988 3.699997,-1c1.399994,-0.199982 2.899994,-0.299988 4.5,-0.299988c2,0 3.699997,0.199982 5.199997,0.5c1.5,0.299988 2.699997,0.899994 3.699997,1.600006c1,0.799988 1.700012,1.699982 2.200012,3c0.5,1.199982 0.699997,2.699982 0.699997,4.5v14.299988c0,0.799988 0.099991,1.399994 0.199997,1.899994c0.100006,0.5 0.300003,0.899994 0.600006,1.200012c0.299988,0.299988 0.599991,0.5 1,0.600006c0.399994,0.099976 1,0.199982 1.599991,0.199982h0.199997v3h-10.5l-1.199997,-3.899994h-0.5c-0.599991,0.799988 -1.199997,1.399994 -1.800003,2c-0.5,0.600006 -1.099991,1 -1.799988,1.399994c-0.600006,0.399994 -1.300003,0.600006 -2.100006,0.800018c-0.800003,0.199982 -1.699997,0.299988 -2.800003,0.299988c-1.199997,0 -2.399994,-0.200012 -3.5,-0.600006c-1.099991,-0.399994 -2,-0.899994 -2.800003,-1.699982c-0.799988,-0.800018 -1.399994,-1.700012 -1.899994,-2.900024c-0.5,-1.099976 -0.699997,-2.5 -0.699997,-4.099976c0,-3.100006 1,-5.300018 3.099991,-6.800018c2.100006,-1.5 5.300003,-2.299988 9.5,-2.399994l4.600006,-0.200012v-3.099976c0,-0.900024 0,-1.800018 -0.100006,-2.600006c-0.099991,-0.800018 -0.199997,-1.5 -0.5,-2c-0.199997,-0.600006 -0.599991,-1 -1.099991,-1.300018c-0.100006,-0.200012 -0.800003,-0.299988 -1.5,-0.299988zm-5,19c0,1.600006 0.300003,2.799988 0.800003,3.600006s1.299988,1.199982 2.399994,1.199982c0.800003,0 1.5,-0.199982 2.199997,-0.5c0.699997,-0.299988 1.199997,-0.799988 1.699997,-1.399994c0.5,-0.600006 0.800003,-1.399994 1.100006,-2.299988c0.199997,-0.899994 0.399994,-1.899994 0.399994,-3v-4.200012l-2.5,0.200012c-1.099991,0.100006 -2.099991,0.199982 -2.799988,0.5c-0.800003,0.299988 -1.400009,0.699982 -1.800003,1.199982c-0.5,0.5 -0.800003,1.200012 -1,1.900024c-0.400009,0.899963 -0.5,1.799988 -0.5,2.799988z" fill="#3E7D9B"/>
    <path d="m252.600006,485.200012c0,0.899994 0.100006,1.5 0.400009,2.100006c0.299988,0.5 0.599991,0.899994 1,1.199982c0.399994,0.300018 0.899994,0.5 1.5,0.600006s1.099991,0.100006 1.800003,0.100006h0.199982v3h-10.899994l-1.599991,-4.399994h-0.5c-0.400009,0.799988 -0.900009,1.5 -1.400009,2.100006c-0.5,0.599976 -1.199997,1.099976 -1.899994,1.599976c-0.699997,0.400024 -1.5,0.800018 -2.400009,1c-0.899994,0.200012 -1.899994,0.300018 -3,0.300018c-1.799988,0 -3.5,-0.300018 -4.899994,-0.899994s-2.600006,-1.600006 -3.600006,-2.800018c-1,-1.299988 -1.699997,-2.899994 -2.199997,-4.799988c-0.5,-2 -0.800003,-4.300018 -0.800003,-7c0,-2.700012 0.300003,-5.100006 0.800003,-7s1.199997,-3.600006 2.199997,-4.899994c1,-1.300018 2.200012,-2.300018 3.600006,-2.900024c1.399994,-0.599976 3,-0.899994 4.800003,-0.899994c1.099991,0 2,0.100006 2.899994,0.300018c0.900009,0.199982 1.600006,0.5 2.300003,0.899994c0.699997,0.399994 1.300003,0.899994 1.800003,1.399994c0.5,0.5 1,1.200012 1.399994,1.799988h0.400009c-0.100006,-1 -0.100006,-2 -0.200012,-2.899994c0,-0.399994 0,-0.799988 -0.099991,-1.199982c0,-0.400024 -0.100006,-0.800018 -0.100006,-1.100006c0,-0.399994 0,-0.700012 -0.099991,-0.899994c0,-0.300018 0,-0.5 0,-0.700012v-3.100006c0,-0.799988 -0.100006,-1.399994 -0.400009,-1.899994c-0.199997,-0.5 -0.599991,-0.799988 -1,-1.100006c-0.399994,-0.199982 -0.899994,-0.399994 -1.399994,-0.5c-0.600006,-0.100006 -1.100006,-0.100006 -1.800003,-0.100006h-0.399994v-3h13.5l0.099991,35.700012l0,0zm-14.300003,3.299988c1.099991,0 2,-0.200012 2.800003,-0.700012c0.699997,-0.5 1.299988,-1.199982 1.799988,-2.099976c0.400009,-1 0.800003,-2.100006 0.900009,-3.600006c0.199997,-1.399994 0.300003,-3.100006 0.300003,-5.100006c0,-1.899994 -0.100006,-3.5 -0.300003,-4.899994c-0.199997,-1.399994 -0.5,-2.600006 -0.900009,-3.600006c-0.399994,-1 -1,-1.700012 -1.799988,-2.200012c-0.700012,-0.5 -1.700012,-0.799988 -2.800003,-0.799988c-0.900009,0 -1.699997,0.299988 -2.400009,0.799988c-0.699997,0.5 -1.199997,1.200012 -1.599991,2.200012c-0.400009,1 -0.699997,2.200012 -0.900009,3.600006c-0.199997,1.399994 -0.299988,3.100006 -0.299988,5c0,3.799988 0.399994,6.699982 1.199997,8.600006c0.800003,1.799988 2.099991,2.799988 4,2.799988z" fill="#3E7D9B"/>
   </g>
   <g>
    <path d="m269.700012,492.700012c-2.399994,0 -4.5,-0.299988 -6.299988,-1c-1.800018,-0.700012 -3.300018,-1.700012 -4.600006,-3c-1.200012,-1.299988 -2.200012,-2.899994 -2.800018,-4.899994c-0.599991,-1.899994 -0.899994,-4.100006 -0.899994,-6.600006c0,-2.600006 0.300003,-5 0.899994,-6.899994c0.600006,-2 1.5,-3.700012 2.700012,-5c1.200012,-1.300018 2.700012,-2.300018 4.399994,-3c1.700012,-0.700012 3.700012,-1 5.899994,-1c2,0 3.900024,0.299988 5.5,0.899994c1.600006,0.600006 3,1.399994 4.100006,2.600006c1.100006,1.100006 2,2.5 2.600006,4.199982c0.600006,1.700012 0.899994,3.600006 0.899994,5.900024v2.899994h-18.399994c0.100006,1.899994 0.299988,3.5 0.600006,4.899994c0.399994,1.399994 0.899994,2.5 1.5,3.399994c0.600006,0.899994 1.399994,1.5 2.299988,1.899994c0.899994,0.400024 1.899994,0.600006 3.100006,0.600006c1,0 1.899994,-0.100006 2.700012,-0.299988s1.599976,-0.5 2.199982,-1c0.700012,-0.399994 1.300018,-0.899994 1.800018,-1.5c0.5,-0.600006 0.899994,-1.200012 1.199982,-1.800018c1,0.5 1.5,1.5 1.5,2.700012c0,0.799988 -0.199982,1.600006 -0.699982,2.299988s-1.100006,1.400024 -2,1.900024c-0.900024,0.5 -2.100006,1 -3.400024,1.299988c-1.299988,0.299988 -2.899994,0.5 -4.799988,0.5zm-0.5,-27.800018c-1.600006,0 -2.799988,0.799988 -3.799988,2.299988c-0.900024,1.600006 -1.400024,3.800018 -1.5,6.800018h9.699982c0,-1.400024 -0.100006,-2.700012 -0.199982,-3.800018c-0.200012,-1.100006 -0.400024,-2.100006 -0.800018,-2.899994c-0.399994,-0.799988 -0.799988,-1.399994 -1.399994,-1.799988c-0.5,-0.399994 -1.200012,-0.600006 -2,-0.600006z" fill="#3E7D9B"/>
   </g>
   <g>
    <path d="m303.700012,492.100006v-18.5c0,-1.199982 -0.100006,-2.299988 -0.200012,-3.199982c-0.199982,-0.900024 -0.399994,-1.700012 -0.799988,-2.400024c-0.399994,-0.599976 -0.799988,-1.099976 -1.399994,-1.5c-0.600006,-0.299988 -1.300018,-0.5 -2.100006,-0.5c-0.899994,0 -1.700012,0.200012 -2.299988,0.700012c-0.600006,0.5 -1.100006,1.100006 -1.5,1.899994s-0.600006,1.700012 -0.800018,2.800018c-0.199982,1.099976 -0.199982,2.199982 -0.199982,3.299988v10.700012c0,0.799988 0.099976,1.399994 0.299988,1.899994c0.200012,0.5 0.5,0.799988 0.799988,1.100006c0.300018,0.299988 0.800018,0.399994 1.300018,0.5c0.5,0.099976 1.100006,0.099976 1.699982,0.099976h0.200012v3h-17.299988v-3h0.099976c0.600006,0 1.200012,0 1.800018,-0.099976c0.5,-0.100006 1,-0.300018 1.399994,-0.5c0.399994,-0.300018 0.700012,-0.700012 0.899994,-1.200012c0.200012,-0.5 0.300018,-1.200012 0.300018,-2v-16.799988c0,-0.800018 -0.100006,-1.400024 -0.300018,-1.900024c-0.199982,-0.5 -0.5,-0.799988 -0.799988,-1.099976c-0.399994,-0.300018 -0.800018,-0.400024 -1.300018,-0.5c-0.5,-0.100006 -1.099976,-0.100006 -1.699982,-0.100006h-0.200012v-2.800018h11.800018l0.699982,4h0.300018c0.599976,-1.100006 1.199982,-1.899994 1.799988,-2.5c0.600006,-0.600006 1.299988,-1.100006 2,-1.399994c0.700012,-0.300018 1.5,-0.5 2.299988,-0.600006c0.800018,-0.100006 1.600006,-0.100006 2.5,-0.100006c2.100006,0 3.800018,0.399994 5.300018,1.100006c1.5,0.700012 2.5,1.899994 3.199982,3.600006h0.5c0.600006,-1.100006 1.200012,-1.899994 1.900024,-2.5c0.699982,-0.600006 1.399994,-1.100006 2.099976,-1.399994c0.800018,-0.300018 1.600006,-0.5 2.400024,-0.600006c0.799988,-0.100006 1.699982,-0.100006 2.599976,-0.100006c1.400024,0 2.700012,0.200012 3.900024,0.600006c1.199982,0.399994 2.099976,1.100006 2.899994,2c0.799988,0.899994 1.399994,2 1.799988,3.399994c0.399994,1.399994 0.600006,3 0.600006,4.899994v13.100006c0,0.899994 0.100006,1.600006 0.200012,2.100006s0.399994,0.899994 0.699982,1.199982c0.300018,0.300018 0.700012,0.5 1.200012,0.600006c0.5,0.100006 1,0.100006 1.600006,0.100006h0.199982v3h-12.5v-18.5c0,-2.399994 -0.299988,-4.299988 -1,-5.600006c-0.699982,-1.299988 -1.799988,-2 -3.5,-2c-0.899994,0 -1.600006,0.200012 -2.299988,0.600006c-0.600006,0.399994 -1.100006,1 -1.5,1.700012c-0.399994,0.699982 -0.700012,1.599976 -0.899994,2.599976c-0.200012,1 -0.300018,2 -0.300018,3.100006v11.100006c0,0.899994 0.100006,1.600006 0.200012,2.100006s0.399994,0.899994 0.699982,1.199982c0.300018,0.300018 0.700012,0.5 1.200012,0.600006c0.5,0.100006 1,0.100006 1.700012,0.100006h0.199982v3l-12.399994,-0.399994l0,0l0,0z" fill="#3E7D9B"/>
   </g>
   <g>
    <path d="m362.5,462v3c-0.600006,0 -1.100006,0.100006 -1.5,0.200012c-0.399994,0.099976 -0.799988,0.399994 -1.200012,0.699982c-0.299988,0.300018 -0.699982,0.700012 -1,1.300018s-0.599976,1.199982 -0.899994,2c-0.699982,1.899994 -1.299988,3.799988 -2.100006,5.699982c-0.699982,1.899994 -1.399994,3.899994 -2.199982,5.800018c-0.700012,2 -1.399994,3.899994 -2.200012,5.799988c-0.699982,1.899994 -1.399994,3.799988 -2.100006,5.700012c-0.699982,1.799988 -1.299988,3.399994 -1.899994,4.799988c-0.600006,1.399994 -1.199982,2.600006 -1.899994,3.600006c-0.600006,1 -1.399994,1.799988 -2.200012,2.5s-1.699982,1.199982 -2.699982,1.600006c-1,0.399994 -2.300018,0.699982 -3.600006,0.799988c-1.399994,0.200012 -3,0.200012 -4.799988,0.200012h-1v-3.300018c2,0 3.599976,-0.199982 5,-0.699982s2.5,-1.200012 3.5,-2c1,-0.900024 1.699982,-1.900024 2.299988,-3.200012c0.600006,-1.200012 1.100006,-2.600006 1.600006,-4.100006l-10.100006,-24.799988c-0.200012,-0.5 -0.5,-1 -0.700012,-1.300018c-0.299988,-0.299988 -0.599976,-0.599976 -0.899994,-0.699982c-0.299988,-0.200012 -0.600006,-0.300018 -1,-0.300018c-0.399994,0 -0.799988,-0.099976 -1.199982,-0.099976v-3.200012h16v3c-1.100006,0 -2,0.100006 -2.600006,0.399994s-0.899994,0.800018 -0.899994,1.700012c0,0.299988 0.099976,0.699982 0.199982,1.100006c0.100006,0.399994 0.200012,0.799988 0.399994,1.099976c0.300018,0.800018 0.700012,1.600006 1,2.600006c0.400024,0.899994 0.700012,1.899994 1,2.800018c0.300018,0.899994 0.700012,1.799988 1,2.699982c0.300018,0.899994 0.600006,1.600006 0.800018,2.300018c0.299988,0.699982 0.5,1.399994 0.699982,1.899994s0.300018,1.100006 0.5,1.600006c0.100006,0.5 0.200012,0.899994 0.300018,1.299988c0.100006,0.399994 0.100006,0.799988 0.199982,1.200012c0,-0.400024 0.100006,-0.800018 0.200012,-1.300018c0.100006,-0.5 0.200012,-0.899994 0.399994,-1.299988s0.300018,-0.800018 0.399994,-1.200012c0.100006,-0.299988 0.200012,-0.600006 0.300018,-0.699982l3.699982,-11c0.100006,-0.200012 0.100006,-0.400024 0.200012,-0.600006c0.100006,-0.200012 0.100006,-0.5 0.200012,-0.800018c0.099976,-0.299988 0.099976,-0.5 0.099976,-0.699982c0,-0.200012 0,-0.399994 0,-0.600006c0,-0.899994 -0.399994,-1.5 -1.099976,-1.799988c-0.700012,-0.300018 -1.700012,-0.5 -3,-0.5v-3h12.799988l0,-0.200012z" fill="#3E7D9B"/>
   </g>
   <g>
    <path d="m273.700012,458.399994h-16.299988v-2.600006h0.099976c0.600006,0 1.100006,0 1.5,-0.100006c0.5,-0.100006 0.900024,-0.199982 1.200012,-0.5c0.299988,-0.199982 0.600006,-0.600006 0.799988,-1.100006c0.200012,-0.5 0.300018,-1.099976 0.300018,-1.799988v-14.100006c0,-0.699982 -0.100006,-1.299988 -0.200012,-1.699982c-0.199982,-0.400024 -0.399994,-0.800018 -0.699982,-1c-0.300018,-0.200012 -0.700012,-0.400024 -1.100006,-0.5c-0.399994,-0.100006 -0.899994,-0.100006 -1.5,-0.100006h-0.100006v-2.600006h9.899994l1,3.799988h0.200012c0.299988,-0.699982 0.699982,-1.399994 1,-1.899994c0.399994,-0.5 0.799988,-1 1.399994,-1.399994c0.5,-0.399994 1.200012,-0.600006 1.899994,-0.799988c0.700012,-0.200012 1.600006,-0.300018 2.600006,-0.300018c1.899994,0 3.299988,0.300018 4.200012,1c0.899994,0.700012 1.399994,1.700012 1.399994,2.899994c0,1.5 -0.5,2.700012 -1.600006,3.5c-1.100006,0.800018 -2.600006,1.200012 -4.600006,1.200012c0,-0.700012 0,-1.299988 -0.100006,-1.799988c-0.099976,-0.5 -0.199982,-0.900024 -0.399994,-1.300018c-0.199982,-0.299988 -0.399994,-0.600006 -0.699982,-0.799988c-0.300018,-0.200012 -0.700012,-0.300018 -1.200012,-0.300018c-0.600006,0 -1.100006,0.100006 -1.5,0.400024c-0.399994,0.299988 -0.799988,0.699982 -1,1.099976s-0.5,1 -0.700012,1.5c-0.199982,0.600006 -0.299988,1.100006 -0.399994,1.700012c-0.100006,0.600006 -0.199982,1.100006 -0.199982,1.700012c0,0.5 0,1 0,1.399994v8.399994c0,0.700012 0.099976,1.299988 0.299988,1.700012c0.200012,0.399994 0.399994,0.799988 0.700012,1c0.299988,0.199982 0.699982,0.399994 1.099976,0.399994c0.400024,0.100006 0.900024,0.100006 1.300018,0.100006h1.600006l-0.200012,2.899994c0,0 0,0 0,0z" fill="#374449"/>
   </g>
   <g>
    <path d="m305.600006,445.200012c0,4.600006 -1.100006,8 -3.199982,10.299988c-2.200012,2.300018 -5.300018,3.400024 -9.5,3.400024c-2,0 -3.700012,-0.300018 -5.300018,-0.800018s-2.899994,-1.399994 -4,-2.5c-1.100006,-1.100006 -1.899994,-2.5 -2.5,-4.299988c-0.600006,-1.700012 -0.899994,-3.700012 -0.899994,-6c0,-4.600006 1.100006,-8 3.200012,-10.200012c2.199982,-2.199982 5.299988,-3.399994 9.5,-3.399994c2,0 3.699982,0.299988 5.299988,0.799988c1.5,0.600006 2.899994,1.400024 4,2.5c1.100006,1.100006 1.899994,2.5 2.5,4.300018c0.599976,1.599976 0.899994,3.599976 0.899994,5.899994zm-17.700012,0c0,1.700012 0.100006,3.299988 0.299988,4.600006c0.200012,1.299988 0.5,2.399994 0.899994,3.299988c0.400024,0.899994 0.900024,1.600006 1.600006,2c0.700012,0.5 1.399994,0.700012 2.399994,0.700012c0.900024,0 1.700012,-0.200012 2.400024,-0.700012c0.599976,-0.5 1.199982,-1.100006 1.599976,-2c0.400024,-0.899994 0.700012,-2 0.900024,-3.299988c0.199982,-1.300018 0.299988,-2.800018 0.299988,-4.600006c0,-1.700012 -0.100006,-3.299988 -0.299988,-4.600006c-0.200012,-1.299988 -0.5,-2.399994 -0.900024,-3.299988c-0.399994,-0.899994 -0.899994,-1.5 -1.599976,-2c-0.700012,-0.399994 -1.400024,-0.700012 -2.400024,-0.700012c-0.899994,0 -1.699982,0.200012 -2.399994,0.700012c-0.699982,0.399994 -1.199982,1.100006 -1.600006,2c-0.399994,0.899994 -0.699982,2 -0.899994,3.299988c-0.299988,1.299988 -0.299988,2.899994 -0.299988,4.600006z" fill="#374449"/>
   </g>
   <g>
    <path d="m324.600006,458.399994l-1.100006,-3.5h-0.199982c-0.5,0.799988 -1,1.5 -1.600006,2c-0.600006,0.5 -1.200012,0.899994 -1.799988,1.199982c-0.700012,0.300018 -1.300018,0.5 -2.100006,0.600006s-1.5,0.100006 -2.200012,0.100006c-2.5,0 -4.5,-0.799988 -5.799988,-2.399994c-1.399994,-1.600006 -2,-4 -2,-7.300018v-10.899994c0,-0.699982 -0.100006,-1.299988 -0.200012,-1.699982c-0.100006,-0.400024 -0.299988,-0.800018 -0.600006,-1c-0.299988,-0.300018 -0.599976,-0.400024 -1,-0.5c-0.399994,-0.100006 -0.899994,-0.100006 -1.5,-0.100006h-0.099976v-2.600006h10.799988v15.600006c0,1 0.100006,2 0.200012,2.799988c0.099976,0.800018 0.299988,1.600006 0.599976,2.200012c0.300018,0.600006 0.700012,1.100006 1.100006,1.399994c0.5,0.299988 1.100006,0.5 1.800018,0.5c0.799988,0 1.399994,-0.200012 2,-0.5c0.599976,-0.299988 1,-0.799988 1.399994,-1.5c0.399994,-0.600006 0.600006,-1.399994 0.799988,-2.299988c0.200012,-0.900024 0.200012,-1.900024 0.200012,-3.100006v-9.399994c0,-0.700012 -0.100006,-1.299988 -0.300018,-1.700012c-0.199982,-0.399994 -0.399994,-0.700012 -0.799988,-0.899994c-0.299988,-0.200012 -0.700012,-0.399994 -1.100006,-0.399994c-0.399994,-0.100006 -0.899994,-0.100006 -1.399994,-0.100006h-0.100006v-2.600006h11.100006v20.5c0,0.700012 0.100006,1.299988 0.200012,1.700012c0.199982,0.399994 0.399994,0.700012 0.699982,0.899994c0.300018,0.200012 0.600006,0.300018 1,0.399994s0.800018,0.100006 1.300018,0.100006h0.399994v2.600006l-9.700012,-0.100006l0,0l0,0z" fill="#374449"/>
    <path d="m355.799988,436.299988c0,-0.600006 -0.200012,-1 -0.700012,-1.200012c-0.5,-0.199982 -1.099976,-0.299988 -1.799988,-0.299988h-0.100006v-2.600006h11.300018v2.600006h-0.5c-0.5,0 -0.899994,0 -1.299988,0.100006c-0.400024,0.100006 -0.700012,0.199982 -1.100006,0.5c-0.399994,0.199982 -0.800018,0.5 -1.200012,1c-0.399994,0.399994 -0.899994,0.899994 -1.399994,1.600006l-5,6.099976l7.200012,9.100006c0.699982,0.899994 1.399994,1.600006 2.099976,2c0.600006,0.399994 1.200012,0.600006 1.800018,0.600006h0.600006v2.600006h-15.5v-2.600006h0.299988c2,0 2.899994,-0.5 2.899994,-1.600006c0,-0.199982 0,-0.399994 -0.100006,-0.600006c0,-0.199982 -0.099976,-0.399994 -0.299988,-0.699982c-0.100006,-0.300018 -0.299988,-0.600006 -0.600006,-0.899994c-0.199982,-0.300018 -0.600006,-0.800018 -1,-1.200012l-2.799988,-3.399994l-3.399994,4.199982c-0.300018,0.400024 -0.5,0.800018 -0.700012,1.200012c-0.200012,0.399994 -0.299988,0.799988 -0.299988,1.200012c0,0.5 0.199982,0.899994 0.699982,1.199982c0.5,0.300018 1.200012,0.399994 2.300018,0.399994h0.099976v2.600006h-12.399994v-2.600006h0.399994c0.600006,0 1.100006,-0.099976 1.5,-0.199982c0.400024,-0.100006 0.900024,-0.300018 1.200012,-0.5c0.399994,-0.200012 0.799988,-0.600006 1.200012,-1c0.399994,-0.399994 0.799988,-0.899994 1.299988,-1.5l6.100006,-7.399994l-6.100006,-7.900024c-0.700012,-0.899994 -1.399994,-1.5 -2,-1.899994c-0.700012,-0.399994 -1.399994,-0.600006 -2.100006,-0.600006h-0.600006v-2.599976h15.300018v2.599976h-0.200012c-0.600006,0 -1,0 -1.399994,0.100006s-0.600006,0.200012 -0.799988,0.300018s-0.300018,0.299988 -0.400024,0.5c-0.099976,0.199982 -0.099976,0.399994 -0.099976,0.5c0,0.299988 0.099976,0.699982 0.299988,1c0.200012,0.299988 0.5,0.699982 0.899994,1.199982l2.700012,3.300018l2.299988,-2.800018c0.399994,-0.5 0.700012,-1 0.899994,-1.399994c0.400024,-0.099976 0.5,-0.599976 0.5,-1z" fill="#374449"/>
   </g>
   <circle r="13.7" cy="368.7" cx="170.6" fill="#FDF6E4"/>
   <circle r="13.7" cy="368.7" cx="201.8" fill="#FDF6E4"/>
   <circle r="13.7" cy="368.7" cx="233.1" fill="#FDF6E4"/>
   <circle r="13.7" cy="398.7" cx="170.6" fill="#FDF6E4"/>
   <circle r="13.7" cy="398.7" cx="201.8" fill="#3E7D9B"/>
   <circle r="13.7" cy="398.7" cx="233.1" fill="#FDF6E4"/>
   <circle r="13.7" cy="428.7" cx="170.6" fill="#3E7D9B"/>
   <circle r="13.7" cy="428.7" cx="201.8" fill="#3E7D9B"/>
   <circle r="13.7" cy="428.7" cx="233.1" fill="#FDF6E4"/>
  </svg>
 </defs>
</svg>