
<?xml version="1.0" encoding="utf-8"?>
<!-- Generated by IcoMoon.io -->
<!DOCTYPE svg PUBLIC "-//W3C//DTD SVG 1.1//EN" "http://www.w3.org/Graphics/SVG/1.1/DTD/svg11.dtd">
<svg version="1.1" xmlns="http://www.w3.org/2000/svg" xmlns:xlink="http://www.w3.org/1999/xlink" width="896" height="1024" viewBox="0 0 896 1024">
<g id="icomoon-ignore">
</g>
<path d="M576 384h-320v64h320v-64zM384 256h-128v64h128v-64zM768 228.531v-100.531h-140.812l-179.188-128-179.188 128h-140.812v100.531l-128 91.469v640h896v-640l-128-91.469zM192 192h512v244.812l-256 211.188-256-211.188v-244.812zM64 448l252.031 191.625-252.031 192.375v-384zM128 896l254-206.25 66 50.25 65.875-50.125 254.125 206.125h-640zM832 832l-252.375-192.062 252.375-191.938v384z"></path>
</svg>
