<?xml version="1.0" encoding="utf-8"?>
<!-- Generator: Adobe Illustrator 18.1.1, SVG Export Plug-In . SVG Version: 6.00 Build 0)  -->
<svg version="1.1" id="Layer_1" xmlns:sketch="http://www.bohemiancoding.com/sketch/ns"
	 xmlns="http://www.w3.org/2000/svg" xmlns:xlink="http://www.w3.org/1999/xlink" x="0px" y="0px" viewBox="69 0 293 292"
	 enable-background="new 69 0 293 292" xml:space="preserve">
<title></title>
<g id="LinkedIn">
	<g id="XMLID_1_">
		<g>
			<path fill="#0077B5" d="M238.5,137.7c-7.5,0-12.1,5.2-13.8,10.4c-0.6,1.7-1.2,4.6-1.2,6.9v46.7h-27.1c0,0,0.6-76,0-83.5h27.1
				v12.1c3.5-5.8,10.4-13.8,24.2-13.8c17.9,0,31.1,12.1,31.1,37.4v47.8h-27.1v-44.9C252.3,145.7,248.3,137.7,238.5,137.7z"/>
			<path fill="#0077B5" d="M168.2,74.9c9.2,0,15,6.3,15,14.4s-5.8,14.4-15.6,14.4l0,0c-9.2,0-15-6.3-15-14.4S159,74.9,168.2,74.9z"
				/>
			<rect x="152.6" y="115.8" fill="#0077B5" width="27.1" height="83.5"/>
			<path fill="#FFFFFF" d="M167.6,103.7c9.2,0,15.6-6.3,15.6-14.4s-5.8-14.4-15-14.4s-15.6,6.3-15.6,14.4S158.4,103.7,167.6,103.7
				L167.6,103.7z M179.7,199.9v-83.5h-27.1v83.5H179.7z M196.4,118.1c0.6,8.1,0,83.5,0,83.5h27.1v-46.7c0-2.3,0-5.2,1.2-6.9
				c1.7-5.2,6.3-10.4,13.8-10.4c9.8,0,13.8,7.5,13.8,19v44.9h27.1v-47.8c0-25.9-13.2-37.4-31.1-37.4c-14.4,0-20.7,8.1-24.2,13.8
				v-12.1L196.4,118.1L196.4,118.1z M216,17.3c69.7,0,126.7,57,126.7,126.7s-57,126.7-126.7,126.7S89.3,213.7,89.3,144
				S146.3,17.3,216,17.3z"/>
			<path fill="#0077B5" d="M216,270.7c69.7,0,126.7-57,126.7-126.7S285.7,17.3,216,17.3S89.3,74.3,89.3,144S146.3,270.7,216,270.7z
				 M216,0c79.5,0,144,64.5,144,144s-64.5,144-144,144S72,223.5,72,144S136.5,0,216,0z"/>
		</g>
	</g>
</g>
</svg>
