<svg height="24" preserveAspectRatio="xMinYMin" viewBox="-2 -2 24 24" width="24" xmlns="http://www.w3.org/2000/svg"><path d="m10 18a8 8 0 1 0 0-16 8 8 0 0 0 0 16zm0 2c-5.523 0-10-4.477-10-10s4.477-10 10-10 10 4.477 10 10-4.477 10-10 10z"/><path d="m12.746 14.068v-2.636h.832v3.511h-7.513v-3.511h.832v2.636z"/><path d="m7.816 11.182 4.087.898.173-.864-4.087-.898zm.54-2.046 3.785 1.853.345-.796-3.783-1.863-.346.806zm1.05-1.954 3.21 2.807.53-.67-3.21-2.808-.53.67zm2.075-2.08-.67.523 2.486 3.523.67-.523zm-3.751 8.08h4.173v-.875h-4.173z"/></svg>