<?xml version="1.0"?>
<svg viewBox="0 0 64 64" xmlns="http://www.w3.org/2000/svg" xmlns:svg="http://www.w3.org/2000/svg">
 <g class="layer">
  <title>Layer 1</title>
  <ellipse cx="32.38" cy="34.87" fill="#000000" id="svg_3" rx="30.38" ry="30.38" transform="matrix(1.02811 0 0 1.03223 -1.03514 -4.11452)"/>
  <ellipse cx="32.13" cy="34.99" fill="#ffffff" id="svg_4" rx="30.38" ry="30.38" transform="matrix(1 0 0 1 0 0) matrix(0.970963 0 0 0.979163 1.05111 -2.38288)"/>
  <path d="m47.55,48.87l0,-13.1l4.38,0l0,17.47l-39.46,0l0,-17.47l4.36,0l0,13.1l30.72,0zm-26.36,-4.36l22,0l0,-4.38l-21.99,0l-0.02,4.38zm0.54,-9.93l21.47,4.47l0.92,-4.24l-21.45,-4.47l-0.94,4.24zm2.79,-10.35l19.87,9.27l1.84,-3.99l-19.87,-9.29l-1.84,3.98l0,0.03zm5.56,-9.8l16.81,14.03l2.78,-3.32l-16.81,-14.03l-2.76,3.3l-0.02,0.02zm10.86,-10.32l-3.58,2.64l13.11,17.63l3.58,-2.66l-13.11,-17.61z" id="svg_1"/>
 </g>
</svg>