<?xml version="1.0" encoding="utf-8"?>
<!-- Generator: Adobe Illustrator 18.1.1, SVG Export Plug-In . SVG Version: 6.00 Build 0)  -->
<svg version="1.1" id="Layer_1" xmlns:sketch="http://www.bohemiancoding.com/sketch/ns"
	 xmlns="http://www.w3.org/2000/svg" xmlns:xlink="http://www.w3.org/1999/xlink" x="0px" y="0px" viewBox="75 0 295 288"
	 enable-background="new 75 0 295 288" xml:space="preserve">
<title></title>
<g id="Twitter">
	<g id="XMLID_1_">
		<g>
			<path fill="#FFFFFF" d="M171.2,127.3c3.5,4,2.9,4.6-3.5,2.3c-2.3-0.6-4-1.2-4.6-1.2c-0.6,0.6,1.7,9.8,3.5,12.7
				c2.3,4.6,6.9,9.8,12.7,12.7l4.6,2.3h-5.2c-5.2,0-5.2,0-4.6,2.3c1.7,6.3,9.2,12.7,17.3,16.1l5.8,2.3l-5.2,2.9
				c-7.5,4.6-16.1,6.9-24.8,6.9c-4,0-7.5,0.6-7.5,0.6c0,1.2,10.9,6.3,17.9,8.6c19.6,6.3,42.6,3.5,59.9-6.9
				c12.1-7.5,24.8-23,30.5-37.4c2.9-8.1,6.3-21.9,6.3-28.8c0-4.6,0.6-5.2,5.2-10.4c2.9-2.9,5.8-6.3,6.3-7.5c1.2-1.7,0.6-1.7-4,0
				c-8.1,2.9-8.6,2.3-5.2-1.7c2.9-2.9,6.3-8.6,6.3-10.4c0-0.6-1.2,0-2.9,1.2c-1.7,1.2-5.2,2.3-8.1,3.5l-5.2,1.7l-4.6-3.5
				c-2.3-1.7-5.8-3.5-8.1-4c-4.6-1.2-12.1-1.2-16.1,0.6c-11.5,4.6-18.4,15.6-17.9,27.6l0.6,4.6l-4.6-0.6c-16.6-2.3-31-9.8-43.7-22.4
				l-5.8-6.3l-1.7,4.6C162.5,108.9,164.2,119.8,171.2,127.3z M223,17.3c69.7,0,126.7,57,126.7,126.7s-57,126.7-126.7,126.7
				S96.3,213.7,96.3,144S153.3,17.3,223,17.3z"/>
			<path fill="#00B0ED" d="M178.6,156.1h5.2l-4.6-2.3c-5.2-2.9-10.4-7.5-12.7-12.7c-1.7-3.5-4-12.1-3.5-12.7c0,0,2.3,0.6,4.6,1.2
				c6.3,2.3,6.9,1.7,3.5-2.3c-6.9-7.5-9.2-18.4-5.8-28.8l1.7-4.6l5.8,6.3c12.2,12.7,27.2,20.2,43.9,22.5l4.6,0.6l-0.6-4.6
				C220.1,106.6,227,95,238.6,91c4-1.7,11.5-1.7,16.1-0.6c1.7,0.6,5.2,2.3,8.1,4l4.6,3.5l5.2-1.7c2.9-1.2,6.3-2.3,8.1-3.5
				c1.7-0.6,2.9-1.2,2.9-1.2c0,1.7-3.5,7.5-6.3,10.4c-4,4.6-2.9,4.6,5.2,1.7c4.6-1.7,4.6-1.7,4,0c-0.6,1.2-3.5,4.6-6.3,7.5
				c-5.2,5.2-5.2,5.8-5.2,10.4c0,6.9-2.9,21.3-6.3,28.8c-5.8,15-17.9,30-30.5,37.4c-17.3,10.9-40.9,13.2-59.9,6.9
				c-6.3-2.3-17.9-7.5-17.9-8.6c0-0.6,3.5-0.6,7.5-0.6c8.6,0,17.3-2.9,24.8-6.9l5.2-2.9l-5.8-2.3c-8.1-2.9-15.6-9.8-17.3-16.1
				C173.5,156.1,173.5,156.1,178.6,156.1z"/>
			<path fill="#00B0ED" d="M79,144C79,64.5,143.5,0,223,0s144,64.5,144,144s-64.5,144-144,144S79,223.5,79,144z M96.3,144
				c0,69.7,57,126.7,126.7,126.7s126.7-57,126.7-126.7S292.7,17.3,223,17.3S96.3,74.3,96.3,144z"/>
		</g>
	</g>
</g>
</svg>
